# MagicaVoxel @ ephtracy

# material
mtllib Elevator.mtl
usemtl palette

# normals
vn -1 0 0
vn 1 0 0
vn 0 0 1
vn 0 0 -1
vn 0 -1 0
vn 0 1 0

# texcoords
vt 0.970703 0.5
vt 0.974609 0.5
vt 0.978516 0.5

# verts
v -16 0 16
v -16 0 -16
v -16 2 16
v -16 2 -16
v -9 1 -7
v -9 1 -9
v -9 2 -7
v -9 2 -9
v -8 1 4
v -8 1 1
v -8 1 -1
v -8 1 -4
v -8 2 4
v -8 2 1
v -8 2 -1
v -8 2 -4
v -7 1 6
v -7 1 4
v -7 1 -4
v -7 1 -6
v -7 2 6
v -7 2 4
v -7 2 -4
v -7 2 -6
v -6 1 7
v -6 1 6
v -6 1 -6
v -6 1 -7
v -6 2 7
v -6 2 6
v -6 2 -6
v -6 2 -7
v -4 1 8
v -4 1 7
v -4 1 4
v -4 1 3
v -4 1 -3
v -4 1 -4
v -4 1 -7
v -4 1 -8
v -4 2 8
v -4 2 7
v -4 2 4
v -4 2 3
v -4 2 -3
v -4 2 -4
v -4 2 -7
v -4 2 -8
v -3 1 6
v -3 1 4
v -3 1 -4
v -3 1 -6
v -3 2 6
v -3 2 4
v -3 2 -4
v -3 2 -6
v 1 1 8
v 1 1 1
v 1 1 -1
v 1 1 -8
v 1 2 8
v 1 2 1
v 1 2 -1
v 1 2 -8
v 4 1 6
v 4 1 5
v 4 1 -5
v 4 1 -6
v 4 2 6
v 4 2 5
v 4 2 -5
v 4 2 -6
v 5 1 5
v 5 1 4
v 5 1 -4
v 5 1 -5
v 5 2 5
v 5 2 4
v 5 2 -4
v 5 2 -5
v 6 1 4
v 6 1 3
v 6 1 -3
v 6 1 -4
v 6 2 4
v 6 2 3
v 6 2 -3
v 6 2 -4
v 7 1 9
v 7 1 7
v 7 2 9
v 7 2 7
v 10 1 13
v 10 1 12
v 10 1 -12
v 10 1 -13
v 10 2 13
v 10 2 12
v 10 2 -12
v 10 2 -13
v 12 1 12
v 12 1 10
v 12 1 -10
v 12 1 -12
v 12 2 12
v 12 2 10
v 12 2 -10
v 12 2 -12
v 13 1 10
v 13 1 -10
v 13 2 10
v 13 2 -10
v -13 1 10
v -13 1 -10
v -13 2 10
v -13 2 -10
v -12 1 12
v -12 1 10
v -12 1 -10
v -12 1 -12
v -12 2 12
v -12 2 10
v -12 2 -10
v -12 2 -12
v -10 1 13
v -10 1 12
v -10 1 -12
v -10 1 -13
v -10 2 13
v -10 2 12
v -10 2 -12
v -10 2 -13
v -7 1 -7
v -7 1 -9
v -7 2 -7
v -7 2 -9
v -6 1 4
v -6 1 3
v -6 1 -3
v -6 1 -4
v -6 2 4
v -6 2 3
v -6 2 -3
v -6 2 -4
v -5 1 5
v -5 1 4
v -5 1 -4
v -5 1 -5
v -5 2 5
v -5 2 4
v -5 2 -4
v -5 2 -5
v -4 1 6
v -4 1 5
v -4 1 -5
v -4 1 -6
v -4 2 6
v -4 2 5
v -4 2 -5
v -4 2 -6
v -1 1 8
v -1 1 1
v -1 1 -1
v -1 1 -8
v -1 2 8
v -1 2 1
v -1 2 -1
v -1 2 -8
v 3 1 6
v 3 1 4
v 3 1 -4
v 3 1 -6
v 3 2 6
v 3 2 4
v 3 2 -4
v 3 2 -6
v 4 1 8
v 4 1 7
v 4 1 4
v 4 1 3
v 4 1 -3
v 4 1 -4
v 4 1 -7
v 4 1 -8
v 4 2 8
v 4 2 7
v 4 2 4
v 4 2 3
v 4 2 -3
v 4 2 -4
v 4 2 -7
v 4 2 -8
v 6 1 7
v 6 1 6
v 6 1 -6
v 6 1 -7
v 6 2 7
v 6 2 6
v 6 2 -6
v 6 2 -7
v 7 1 6
v 7 1 4
v 7 1 -4
v 7 1 -6
v 7 2 6
v 7 2 4
v 7 2 -4
v 7 2 -6
v 8 1 4
v 8 1 1
v 8 1 -1
v 8 1 -4
v 8 2 4
v 8 2 1
v 8 2 -1
v 8 2 -4
v 9 1 9
v 9 1 7
v 9 2 9
v 9 2 7
v 16 0 16
v 16 0 -16
v 16 2 16
v 16 2 -16
v -16 0 16
v -16 2 16
v 16 0 16
v 16 2 16
v 7 1 9
v 7 2 9
v 8 1 9
v 8 2 9
v 9 1 9
v 9 2 9
v -4 1 8
v -4 2 8
v -1 1 8
v -1 2 8
v 1 1 8
v 1 2 8
v 4 1 8
v 4 2 8
v -6 1 7
v -6 2 7
v -4 1 7
v -4 2 7
v 4 1 7
v 4 2 7
v 6 1 7
v 6 2 7
v -7 1 6
v -7 2 6
v -6 1 6
v -6 2 6
v 6 1 6
v 6 2 6
v 7 1 6
v 7 2 6
v -8 1 4
v -8 2 4
v -7 1 4
v -7 2 4
v -4 1 4
v -4 2 4
v -3 1 4
v -3 2 4
v 3 1 4
v 3 2 4
v 4 1 4
v 4 2 4
v 7 1 4
v 7 2 4
v 8 1 4
v 8 2 4
v -6 1 3
v -6 2 3
v -4 1 3
v -4 2 3
v 4 1 3
v 4 2 3
v 6 1 3
v 6 2 3
v -8 1 -1
v -8 2 -1
v -1 1 -1
v -1 2 -1
v 1 1 -1
v 1 2 -1
v 8 1 -1
v 8 2 -1
v -6 1 -4
v -6 2 -4
v -5 1 -4
v -5 2 -4
v 5 1 -4
v 5 2 -4
v 6 1 -4
v 6 2 -4
v -5 1 -5
v -5 2 -5
v -4 1 -5
v -4 2 -5
v 4 1 -5
v 4 2 -5
v 5 1 -5
v 5 2 -5
v -4 1 -6
v -4 2 -6
v -3 1 -6
v -3 2 -6
v 3 1 -6
v 3 2 -6
v 4 1 -6
v 4 2 -6
v -9 1 -7
v -9 2 -7
v -8 1 -7
v -8 2 -7
v -7 1 -7
v -7 2 -7
v -13 1 -10
v -13 2 -10
v -12 1 -10
v -12 2 -10
v 12 1 -10
v 12 2 -10
v 13 1 -10
v 13 2 -10
v -12 1 -12
v -12 2 -12
v -10 1 -12
v -10 2 -12
v 10 1 -12
v 10 2 -12
v 12 1 -12
v 12 2 -12
v -10 1 -13
v -10 2 -13
v -8 1 -13
v -8 2 -13
v 10 1 -13
v 10 2 -13
v -10 1 13
v -10 2 13
v 10 1 13
v 10 2 13
v -12 1 12
v -12 2 12
v -10 1 12
v -10 2 12
v 10 1 12
v 10 2 12
v 12 1 12
v 12 2 12
v -13 1 10
v -13 2 10
v -12 1 10
v -12 2 10
v 12 1 10
v 12 2 10
v 13 1 10
v 13 2 10
v 7 1 7
v 7 2 7
v 8 1 7
v 8 2 7
v 9 1 7
v 9 2 7
v -4 1 6
v -4 2 6
v -3 1 6
v -3 2 6
v 3 1 6
v 3 2 6
v 4 1 6
v 4 2 6
v -5 1 5
v -5 2 5
v -4 1 5
v -4 2 5
v 4 1 5
v 4 2 5
v 5 1 5
v 5 2 5
v -6 1 4
v -6 2 4
v -5 1 4
v -5 2 4
v 5 1 4
v 5 2 4
v 6 1 4
v 6 2 4
v -8 1 1
v -8 2 1
v -1 1 1
v -1 2 1
v 1 1 1
v 1 2 1
v 8 1 1
v 8 2 1
v -6 1 -3
v -6 2 -3
v -4 1 -3
v -4 2 -3
v 4 1 -3
v 4 2 -3
v 6 1 -3
v 6 2 -3
v -8 1 -4
v -8 2 -4
v -7 1 -4
v -7 2 -4
v -4 1 -4
v -4 2 -4
v -3 1 -4
v -3 2 -4
v 3 1 -4
v 3 2 -4
v 4 1 -4
v 4 2 -4
v 7 1 -4
v 7 2 -4
v 8 1 -4
v 8 2 -4
v -7 1 -6
v -7 2 -6
v -6 1 -6
v -6 2 -6
v 6 1 -6
v 6 2 -6
v 7 1 -6
v 7 2 -6
v -6 1 -7
v -6 2 -7
v -4 1 -7
v -4 2 -7
v 4 1 -7
v 4 2 -7
v 6 1 -7
v 6 2 -7
v -4 1 -8
v -4 2 -8
v -1 1 -8
v -1 2 -8
v 1 1 -8
v 1 2 -8
v 4 1 -8
v 4 2 -8
v -9 1 -9
v -9 2 -9
v -8 1 -9
v -8 2 -9
v -7 1 -9
v -7 2 -9
v -16 0 -16
v -16 2 -16
v 16 0 -16
v 16 2 -16
v -16 0 16
v 16 0 16
v -16 0 -16
v 16 0 -16
v -10 1 13
v 10 1 13
v -12 1 12
v -10 1 12
v 10 1 12
v 12 1 12
v -13 1 10
v -12 1 10
v 12 1 10
v 13 1 10
v 7 1 9
v 8 1 9
v 9 1 9
v -4 1 8
v -1 1 8
v 1 1 8
v 4 1 8
v -6 1 7
v -4 1 7
v 4 1 7
v 6 1 7
v 7 1 7
v 8 1 7
v 9 1 7
v -7 1 6
v -6 1 6
v -4 1 6
v -3 1 6
v 3 1 6
v 4 1 6
v 6 1 6
v 7 1 6
v -5 1 5
v -4 1 5
v 4 1 5
v 5 1 5
v -8 1 4
v -7 1 4
v -6 1 4
v -5 1 4
v -4 1 4
v -3 1 4
v 3 1 4
v 4 1 4
v 5 1 4
v 6 1 4
v 7 1 4
v 8 1 4
v -6 1 3
v -4 1 3
v 4 1 3
v 6 1 3
v -8 1 1
v -1 1 1
v 1 1 1
v 8 1 1
v -8 1 -1
v -1 1 -1
v 1 1 -1
v 8 1 -1
v -6 1 -3
v -4 1 -3
v 4 1 -3
v 6 1 -3
v -8 1 -4
v -7 1 -4
v -6 1 -4
v -5 1 -4
v -4 1 -4
v -3 1 -4
v 3 1 -4
v 4 1 -4
v 5 1 -4
v 6 1 -4
v 7 1 -4
v 8 1 -4
v -5 1 -5
v -4 1 -5
v 4 1 -5
v 5 1 -5
v -7 1 -6
v -6 1 -6
v -4 1 -6
v -3 1 -6
v 3 1 -6
v 4 1 -6
v 6 1 -6
v 7 1 -6
v -9 1 -7
v -8 1 -7
v -7 1 -7
v -6 1 -7
v -4 1 -7
v 4 1 -7
v 6 1 -7
v -4 1 -8
v -1 1 -8
v 1 1 -8
v 4 1 -8
v -9 1 -9
v -8 1 -9
v -7 1 -9
v -13 1 -10
v -12 1 -10
v 12 1 -10
v 13 1 -10
v -12 1 -12
v -10 1 -12
v 10 1 -12
v 12 1 -12
v -10 1 -13
v -8 1 -13
v 10 1 -13
v -16 2 16
v 16 2 16
v -10 2 14
v 10 2 14
v -12 2 13
v -10 2 13
v 10 2 13
v -13 2 12
v -12 2 12
v -10 2 12
v 10 2 12
v 12 2 12
v -14 2 10
v -13 2 10
v -12 2 10
v 12 2 10
v 13 2 10
v 7 2 9
v 8 2 9
v 9 2 9
v -4 2 8
v -1 2 8
v 1 2 8
v 4 2 8
v -6 2 7
v -4 2 7
v 4 2 7
v 6 2 7
v 7 2 7
v 8 2 7
v 9 2 7
v -7 2 6
v -6 2 6
v -4 2 6
v -3 2 6
v 3 2 6
v 4 2 6
v 6 2 6
v 7 2 6
v -5 2 5
v -4 2 5
v 4 2 5
v 5 2 5
v -8 2 4
v -7 2 4
v -6 2 4
v -5 2 4
v -4 2 4
v -3 2 4
v 3 2 4
v 4 2 4
v 5 2 4
v 6 2 4
v 7 2 4
v 8 2 4
v -6 2 3
v -4 2 3
v 4 2 3
v 6 2 3
v -8 2 1
v -1 2 1
v 1 2 1
v 8 2 1
v -8 2 -1
v -1 2 -1
v 1 2 -1
v 8 2 -1
v -6 2 -3
v -4 2 -3
v 4 2 -3
v 6 2 -3
v -8 2 -4
v -7 2 -4
v -6 2 -4
v -5 2 -4
v -4 2 -4
v -3 2 -4
v 3 2 -4
v 4 2 -4
v 5 2 -4
v 6 2 -4
v 7 2 -4
v 8 2 -4
v -5 2 -5
v -4 2 -5
v 4 2 -5
v 5 2 -5
v -7 2 -6
v -6 2 -6
v -4 2 -6
v -3 2 -6
v 3 2 -6
v 4 2 -6
v 6 2 -6
v 7 2 -6
v -9 2 -7
v -8 2 -7
v -7 2 -7
v -6 2 -7
v -4 2 -7
v 4 2 -7
v 6 2 -7
v -4 2 -8
v -1 2 -8
v 1 2 -8
v 4 2 -8
v -9 2 -9
v -8 2 -9
v -7 2 -9
v -14 2 -10
v -13 2 -10
v -12 2 -10
v 12 2 -10
v 13 2 -10
v -13 2 -12
v -12 2 -12
v -10 2 -12
v 10 2 -12
v 12 2 -12
v -12 2 -13
v -10 2 -13
v -8 2 -13
v 10 2 -13
v -10 2 -14
v -8 2 -14
v -16 2 -16
v 16 2 -16

# faces
f 3/1/1 2/1/1 1/1/1
f 4/1/1 2/1/1 3/1/1
f 7/3/1 6/3/1 5/3/1
f 8/3/1 6/3/1 7/3/1
f 13/2/1 10/2/1 9/2/1
f 14/2/1 10/2/1 13/2/1
f 15/2/1 12/2/1 11/2/1
f 16/2/1 12/2/1 15/2/1
f 21/2/1 18/2/1 17/2/1
f 22/2/1 18/2/1 21/2/1
f 23/2/1 20/2/1 19/2/1
f 24/2/1 20/2/1 23/2/1
f 29/2/1 26/2/1 25/2/1
f 30/2/1 26/2/1 29/2/1
f 31/2/1 28/2/1 27/2/1
f 32/2/1 28/2/1 31/2/1
f 41/2/1 34/2/1 33/2/1
f 42/2/1 34/2/1 41/2/1
f 43/2/1 36/2/1 35/2/1
f 44/2/1 36/2/1 43/2/1
f 45/2/1 38/2/1 37/2/1
f 46/2/1 38/2/1 45/2/1
f 47/2/1 40/2/1 39/2/1
f 48/2/1 40/2/1 47/2/1
f 53/2/1 50/2/1 49/2/1
f 54/2/1 50/2/1 53/2/1
f 55/2/1 52/2/1 51/2/1
f 56/2/1 52/2/1 55/2/1
f 61/2/1 58/2/1 57/2/1
f 62/2/1 58/2/1 61/2/1
f 63/2/1 60/2/1 59/2/1
f 64/2/1 60/2/1 63/2/1
f 69/2/1 66/2/1 65/2/1
f 70/2/1 66/2/1 69/2/1
f 71/2/1 68/2/1 67/2/1
f 72/2/1 68/2/1 71/2/1
f 77/2/1 74/2/1 73/2/1
f 78/2/1 74/2/1 77/2/1
f 79/2/1 76/2/1 75/2/1
f 80/2/1 76/2/1 79/2/1
f 85/2/1 82/2/1 81/2/1
f 86/2/1 82/2/1 85/2/1
f 87/2/1 84/2/1 83/2/1
f 88/2/1 84/2/1 87/2/1
f 91/3/1 90/3/1 89/3/1
f 92/3/1 90/3/1 91/3/1
f 97/1/1 94/1/1 93/1/1
f 98/1/1 94/1/1 97/1/1
f 99/1/1 96/1/1 95/1/1
f 100/1/1 96/1/1 99/1/1
f 105/1/1 102/1/1 101/1/1
f 106/1/1 102/1/1 105/1/1
f 107/1/1 104/1/1 103/1/1
f 108/1/1 104/1/1 107/1/1
f 111/1/1 110/1/1 109/1/1
f 112/1/1 110/1/1 111/1/1
f 113/3/2 114/3/2 115/3/2
f 115/3/2 114/3/2 116/3/2
f 117/3/2 118/3/2 121/3/2
f 121/3/2 118/3/2 122/3/2
f 119/3/2 120/3/2 123/3/2
f 123/3/2 120/3/2 124/3/2
f 125/3/2 126/3/2 129/3/2
f 129/3/2 126/3/2 130/3/2
f 127/3/2 128/3/2 131/3/2
f 131/3/2 128/3/2 132/3/2
f 133/1/2 134/1/2 135/1/2
f 135/1/2 134/1/2 136/1/2
f 137/2/2 138/2/2 141/2/2
f 141/2/2 138/2/2 142/2/2
f 139/2/2 140/2/2 143/2/2
f 143/2/2 140/2/2 144/2/2
f 145/2/2 146/2/2 149/2/2
f 149/2/2 146/2/2 150/2/2
f 147/2/2 148/2/2 151/2/2
f 151/2/2 148/2/2 152/2/2
f 153/2/2 154/2/2 157/2/2
f 157/2/2 154/2/2 158/2/2
f 155/2/2 156/2/2 159/2/2
f 159/2/2 156/2/2 160/2/2
f 161/2/2 162/2/2 165/2/2
f 165/2/2 162/2/2 166/2/2
f 163/2/2 164/2/2 167/2/2
f 167/2/2 164/2/2 168/2/2
f 169/2/2 170/2/2 173/2/2
f 173/2/2 170/2/2 174/2/2
f 171/2/2 172/2/2 175/2/2
f 175/2/2 172/2/2 176/2/2
f 177/2/2 178/2/2 185/2/2
f 185/2/2 178/2/2 186/2/2
f 179/2/2 180/2/2 187/2/2
f 187/2/2 180/2/2 188/2/2
f 181/2/2 182/2/2 189/2/2
f 189/2/2 182/2/2 190/2/2
f 183/2/2 184/2/2 191/2/2
f 191/2/2 184/2/2 192/2/2
f 193/2/2 194/2/2 197/2/2
f 197/2/2 194/2/2 198/2/2
f 195/2/2 196/2/2 199/2/2
f 199/2/2 196/2/2 200/2/2
f 201/2/2 202/2/2 205/2/2
f 205/2/2 202/2/2 206/2/2
f 203/2/2 204/2/2 207/2/2
f 207/2/2 204/2/2 208/2/2
f 209/2/2 210/2/2 213/2/2
f 213/2/2 210/2/2 214/2/2
f 211/2/2 212/2/2 215/2/2
f 215/2/2 212/2/2 216/2/2
f 217/1/2 218/1/2 219/1/2
f 219/1/2 218/1/2 220/1/2
f 221/1/2 222/1/2 223/1/2
f 223/1/2 222/1/2 224/1/2
f 227/1/3 226/1/3 225/1/3
f 228/1/3 226/1/3 227/1/3
f 231/3/3 230/3/3 229/3/3
f 232/3/3 230/3/3 231/3/3
f 233/1/3 232/1/3 231/1/3
f 234/1/3 232/1/3 233/1/3
f 237/2/3 236/2/3 235/2/3
f 238/2/3 236/2/3 237/2/3
f 241/2/3 240/2/3 239/2/3
f 242/2/3 240/2/3 241/2/3
f 245/2/3 244/2/3 243/2/3
f 246/2/3 244/2/3 245/2/3
f 249/2/3 248/2/3 247/2/3
f 250/2/3 248/2/3 249/2/3
f 253/2/3 252/2/3 251/2/3
f 254/2/3 252/2/3 253/2/3
f 257/2/3 256/2/3 255/2/3
f 258/2/3 256/2/3 257/2/3
f 261/2/3 260/2/3 259/2/3
f 262/2/3 260/2/3 261/2/3
f 265/2/3 264/2/3 263/2/3
f 266/2/3 264/2/3 265/2/3
f 269/2/3 268/2/3 267/2/3
f 270/2/3 268/2/3 269/2/3
f 273/2/3 272/2/3 271/2/3
f 274/2/3 272/2/3 273/2/3
f 277/2/3 276/2/3 275/2/3
f 278/2/3 276/2/3 277/2/3
f 281/2/3 280/2/3 279/2/3
f 282/2/3 280/2/3 281/2/3
f 285/2/3 284/2/3 283/2/3
f 286/2/3 284/2/3 285/2/3
f 289/2/3 288/2/3 287/2/3
f 290/2/3 288/2/3 289/2/3
f 293/2/3 292/2/3 291/2/3
f 294/2/3 292/2/3 293/2/3
f 297/2/3 296/2/3 295/2/3
f 298/2/3 296/2/3 297/2/3
f 301/2/3 300/2/3 299/2/3
f 302/2/3 300/2/3 301/2/3
f 305/2/3 304/2/3 303/2/3
f 306/2/3 304/2/3 305/2/3
f 309/2/3 308/2/3 307/2/3
f 310/2/3 308/2/3 309/2/3
f 313/2/3 312/2/3 311/2/3
f 314/2/3 312/2/3 313/2/3
f 317/3/3 316/3/3 315/3/3
f 318/3/3 316/3/3 317/3/3
f 319/1/3 318/1/3 317/1/3
f 320/1/3 318/1/3 319/1/3
f 323/3/3 322/3/3 321/3/3
f 324/3/3 322/3/3 323/3/3
f 327/1/3 326/1/3 325/1/3
f 328/1/3 326/1/3 327/1/3
f 331/3/3 330/3/3 329/3/3
f 332/3/3 330/3/3 331/3/3
f 335/1/3 334/1/3 333/1/3
f 336/1/3 334/1/3 335/1/3
f 339/3/3 338/3/3 337/3/3
f 340/3/3 338/3/3 339/3/3
f 341/1/3 340/1/3 339/1/3
f 342/1/3 340/1/3 341/1/3
f 343/3/4 344/3/4 345/3/4
f 345/3/4 344/3/4 346/3/4
f 347/3/4 348/3/4 349/3/4
f 349/3/4 348/3/4 350/3/4
f 351/1/4 352/1/4 353/1/4
f 353/1/4 352/1/4 354/1/4
f 355/3/4 356/3/4 357/3/4
f 357/3/4 356/3/4 358/3/4
f 359/1/4 360/1/4 361/1/4
f 361/1/4 360/1/4 362/1/4
f 363/3/4 364/3/4 365/3/4
f 365/3/4 364/3/4 366/3/4
f 365/1/4 366/1/4 367/1/4
f 367/1/4 366/1/4 368/1/4
f 369/2/4 370/2/4 371/2/4
f 371/2/4 370/2/4 372/2/4
f 373/2/4 374/2/4 375/2/4
f 375/2/4 374/2/4 376/2/4
f 377/2/4 378/2/4 379/2/4
f 379/2/4 378/2/4 380/2/4
f 381/2/4 382/2/4 383/2/4
f 383/2/4 382/2/4 384/2/4
f 385/2/4 386/2/4 387/2/4
f 387/2/4 386/2/4 388/2/4
f 389/2/4 390/2/4 391/2/4
f 391/2/4 390/2/4 392/2/4
f 393/2/4 394/2/4 395/2/4
f 395/2/4 394/2/4 396/2/4
f 397/2/4 398/2/4 399/2/4
f 399/2/4 398/2/4 400/2/4
f 401/2/4 402/2/4 403/2/4
f 403/2/4 402/2/4 404/2/4
f 405/2/4 406/2/4 407/2/4
f 407/2/4 406/2/4 408/2/4
f 409/2/4 410/2/4 411/2/4
f 411/2/4 410/2/4 412/2/4
f 413/2/4 414/2/4 415/2/4
f 415/2/4 414/2/4 416/2/4
f 417/2/4 418/2/4 419/2/4
f 419/2/4 418/2/4 420/2/4
f 421/2/4 422/2/4 423/2/4
f 423/2/4 422/2/4 424/2/4
f 425/2/4 426/2/4 427/2/4
f 427/2/4 426/2/4 428/2/4
f 429/2/4 430/2/4 431/2/4
f 431/2/4 430/2/4 432/2/4
f 433/2/4 434/2/4 435/2/4
f 435/2/4 434/2/4 436/2/4
f 437/2/4 438/2/4 439/2/4
f 439/2/4 438/2/4 440/2/4
f 441/2/4 442/2/4 443/2/4
f 443/2/4 442/2/4 444/2/4
f 445/2/4 446/2/4 447/2/4
f 447/2/4 446/2/4 448/2/4
f 449/3/4 450/3/4 451/3/4
f 451/3/4 450/3/4 452/3/4
f 451/1/4 452/1/4 453/1/4
f 453/1/4 452/1/4 454/1/4
f 455/1/4 456/1/4 457/1/4
f 457/1/4 456/1/4 458/1/4
f 461/1/5 460/1/5 459/1/5
f 462/1/5 460/1/5 461/1/5
f 463/1/6 464/1/6 466/1/6
f 466/1/6 464/1/6 467/1/6
f 465/1/6 466/1/6 470/1/6
f 467/1/6 468/1/6 470/1/6
f 466/1/6 467/1/6 470/1/6
f 470/1/6 468/1/6 471/1/6
f 469/1/6 470/1/6 473/1/6
f 471/1/6 472/1/6 473/1/6
f 470/1/6 471/1/6 473/1/6
f 473/1/6 472/1/6 474/1/6
f 474/1/6 472/1/6 475/1/6
f 469/1/6 473/1/6 476/1/6
f 476/1/6 473/1/6 477/1/6
f 477/1/6 473/1/6 478/1/6
f 478/1/6 473/1/6 479/1/6
f 469/1/6 476/1/6 480/1/6
f 480/1/6 476/1/6 481/1/6
f 479/1/6 473/1/6 482/1/6
f 482/1/6 473/1/6 483/1/6
f 483/1/6 473/1/6 484/1/6
f 475/1/6 472/1/6 486/1/6
f 469/1/6 480/1/6 487/1/6
f 487/1/6 480/1/6 488/1/6
f 484/1/6 485/1/6 493/1/6
f 485/1/6 486/1/6 493/1/6
f 483/1/6 484/1/6 493/1/6
f 493/1/6 486/1/6 494/1/6
f 489/1/6 490/1/6 496/1/6
f 491/1/6 492/1/6 497/1/6
f 469/1/6 487/1/6 499/1/6
f 499/1/6 487/1/6 500/1/6
f 495/1/6 496/1/6 502/1/6
f 496/1/6 490/1/6 503/1/6
f 502/1/6 496/1/6 503/1/6
f 503/1/6 490/1/6 504/1/6
f 497/1/6 498/1/6 505/1/6
f 491/1/6 497/1/6 505/1/6
f 505/1/6 498/1/6 506/1/6
f 506/1/6 498/1/6 507/1/6
f 494/1/6 486/1/6 509/1/6
f 509/1/6 486/1/6 510/1/6
f 501/1/6 502/1/6 511/1/6
f 502/1/6 503/1/6 511/1/6
f 511/1/6 503/1/6 512/1/6
f 507/1/6 508/1/6 513/1/6
f 506/1/6 507/1/6 513/1/6
f 513/1/6 508/1/6 514/1/6
f 469/1/6 499/1/6 515/1/6
f 477/1/6 478/1/6 516/1/6
f 516/1/6 478/1/6 517/1/6
f 510/1/6 486/1/6 518/1/6
f 516/1/6 517/1/6 519/1/6
f 517/1/6 518/1/6 519/1/6
f 469/1/6 515/1/6 519/1/6
f 515/1/6 516/1/6 519/1/6
f 519/1/6 518/1/6 520/1/6
f 520/1/6 518/1/6 521/1/6
f 518/1/6 486/1/6 522/1/6
f 521/1/6 518/1/6 522/1/6
f 469/1/6 519/1/6 527/1/6
f 523/1/6 524/1/6 529/1/6
f 529/1/6 524/1/6 530/1/6
f 530/1/6 524/1/6 531/1/6
f 525/1/6 526/1/6 534/1/6
f 534/1/6 526/1/6 535/1/6
f 535/1/6 526/1/6 536/1/6
f 522/1/6 486/1/6 538/1/6
f 531/1/6 532/1/6 539/1/6
f 530/1/6 531/1/6 539/1/6
f 539/1/6 532/1/6 540/1/6
f 534/1/6 535/1/6 541/1/6
f 533/1/6 534/1/6 541/1/6
f 541/1/6 535/1/6 542/1/6
f 527/1/6 528/1/6 543/1/6
f 540/1/6 532/1/6 545/1/6
f 545/1/6 532/1/6 546/1/6
f 533/1/6 541/1/6 547/1/6
f 547/1/6 541/1/6 548/1/6
f 537/1/6 538/1/6 550/1/6
f 469/1/6 527/1/6 551/1/6
f 543/1/6 544/1/6 551/1/6
f 527/1/6 543/1/6 551/1/6
f 551/1/6 544/1/6 552/1/6
f 552/1/6 544/1/6 553/1/6
f 553/1/6 544/1/6 554/1/6
f 549/1/6 550/1/6 557/1/6
f 554/1/6 555/1/6 558/1/6
f 553/1/6 554/1/6 558/1/6
f 520/1/6 521/1/6 559/1/6
f 559/1/6 521/1/6 560/1/6
f 556/1/6 557/1/6 561/1/6
f 469/1/6 551/1/6 562/1/6
f 553/1/6 558/1/6 564/1/6
f 559/1/6 560/1/6 564/1/6
f 560/1/6 561/1/6 564/1/6
f 558/1/6 559/1/6 564/1/6
f 562/1/6 563/1/6 565/1/6
f 563/1/6 564/1/6 565/1/6
f 469/1/6 562/1/6 565/1/6
f 565/1/6 564/1/6 566/1/6
f 564/1/6 561/1/6 567/1/6
f 566/1/6 564/1/6 567/1/6
f 486/1/6 472/1/6 567/1/6
f 538/1/6 486/1/6 567/1/6
f 550/1/6 538/1/6 567/1/6
f 561/1/6 557/1/6 567/1/6
f 557/1/6 550/1/6 567/1/6
f 567/1/6 472/1/6 568/1/6
f 566/1/6 567/1/6 569/1/6
f 569/1/6 567/1/6 570/1/6
f 570/1/6 567/1/6 571/1/6
f 571/1/6 567/1/6 572/1/6
f 570/1/6 571/1/6 573/1/6
f 573/1/6 571/1/6 574/1/6
f 574/1/6 571/1/6 575/1/6
f 576/1/6 577/1/6 578/1/6
f 578/1/6 577/1/6 579/1/6
f 576/1/6 578/1/6 580/1/6
f 578/3/6 579/3/6 581/3/6
f 580/1/6 578/1/6 581/1/6
f 579/1/6 577/1/6 582/1/6
f 581/3/6 579/3/6 582/3/6
f 576/1/6 580/1/6 583/1/6
f 580/3/6 581/3/6 584/3/6
f 583/1/6 580/1/6 584/1/6
f 584/3/6 581/3/6 585/3/6
f 582/1/6 577/1/6 586/1/6
f 586/1/6 577/1/6 587/1/6
f 576/1/6 583/1/6 588/1/6
f 583/3/6 584/3/6 589/3/6
f 588/1/6 583/1/6 589/1/6
f 589/3/6 584/3/6 590/3/6
f 587/1/6 577/1/6 591/1/6
f 591/1/6 577/1/6 592/1/6
f 596/2/6 597/2/6 601/2/6
f 598/2/6 599/2/6 602/2/6
f 593/3/6 594/3/6 604/3/6
f 594/1/6 595/1/6 605/1/6
f 604/3/6 594/3/6 605/3/6
f 605/1/6 595/1/6 606/1/6
f 600/2/6 601/2/6 608/2/6
f 601/2/6 597/2/6 609/2/6
f 608/2/6 601/2/6 609/2/6
f 609/2/6 597/2/6 610/2/6
f 602/2/6 603/2/6 611/2/6
f 598/2/6 602/2/6 611/2/6
f 611/2/6 603/2/6 612/2/6
f 612/2/6 603/2/6 613/2/6
f 607/2/6 608/2/6 615/2/6
f 608/2/6 609/2/6 615/2/6
f 615/2/6 609/2/6 616/2/6
f 613/2/6 614/2/6 617/2/6
f 612/2/6 613/2/6 617/2/6
f 617/2/6 614/2/6 618/2/6
f 607/2/6 615/2/6 620/2/6
f 620/2/6 615/2/6 621/2/6
f 621/2/6 615/2/6 622/2/6
f 610/2/6 597/2/6 624/2/6
f 598/2/6 611/2/6 625/2/6
f 618/2/6 614/2/6 627/2/6
f 627/2/6 614/2/6 628/2/6
f 628/2/6 614/2/6 629/2/6
f 619/2/6 620/2/6 631/2/6
f 620/2/6 621/2/6 631/2/6
f 623/2/6 624/2/6 632/2/6
f 625/2/6 626/2/6 633/2/6
f 629/2/6 630/2/6 634/2/6
f 628/2/6 629/2/6 634/2/6
f 631/2/6 632/2/6 635/2/6
f 619/2/6 631/2/6 635/2/6
f 632/2/6 624/2/6 636/2/6
f 635/2/6 632/2/6 636/2/6
f 624/2/6 597/2/6 636/2/6
f 625/2/6 633/2/6 637/2/6
f 633/2/6 634/2/6 637/2/6
f 598/2/6 625/2/6 637/2/6
f 634/2/6 630/2/6 638/2/6
f 637/2/6 634/2/6 638/2/6
f 639/2/6 640/2/6 643/2/6
f 643/2/6 640/2/6 644/2/6
f 641/2/6 642/2/6 645/2/6
f 645/2/6 642/2/6 646/2/6
f 639/2/6 643/2/6 647/2/6
f 647/2/6 643/2/6 648/2/6
f 648/2/6 643/2/6 649/2/6
f 644/2/6 640/2/6 651/2/6
f 651/2/6 640/2/6 652/2/6
f 641/2/6 645/2/6 653/2/6
f 653/2/6 645/2/6 654/2/6
f 646/2/6 642/2/6 656/2/6
f 656/2/6 642/2/6 657/2/6
f 657/2/6 642/2/6 658/2/6
f 649/2/6 650/2/6 659/2/6
f 648/2/6 649/2/6 659/2/6
f 656/2/6 657/2/6 662/2/6
f 655/2/6 656/2/6 662/2/6
f 659/2/6 660/2/6 663/2/6
f 648/2/6 659/2/6 663/2/6
f 663/2/6 660/2/6 664/2/6
f 664/2/6 660/2/6 665/2/6
f 652/2/6 640/2/6 666/2/6
f 641/2/6 653/2/6 667/2/6
f 661/2/6 662/2/6 668/2/6
f 662/2/6 657/2/6 669/2/6
f 668/2/6 662/2/6 669/2/6
f 669/2/6 657/2/6 670/2/6
f 664/2/6 665/2/6 674/2/6
f 665/2/6 666/2/6 674/2/6
f 674/2/6 666/2/6 675/2/6
f 667/2/6 668/2/6 676/2/6
f 668/2/6 669/2/6 676/2/6
f 676/2/6 669/2/6 677/2/6
f 675/2/6 666/2/6 678/2/6
f 666/2/6 640/2/6 679/2/6
f 678/2/6 666/2/6 679/2/6
f 641/2/6 667/2/6 680/2/6
f 667/2/6 676/2/6 680/2/6
f 680/2/6 676/2/6 681/2/6
f 671/3/6 672/3/6 682/3/6
f 672/1/6 673/1/6 683/1/6
f 682/3/6 672/3/6 683/3/6
f 683/1/6 673/1/6 684/1/6
f 576/1/6 588/1/6 685/1/6
f 588/3/6 589/3/6 685/3/6
f 685/3/6 589/3/6 686/3/6
f 592/1/6 577/1/6 689/1/6
f 686/3/6 687/3/6 690/3/6
f 685/1/6 686/1/6 690/1/6
f 690/3/6 687/3/6 691/3/6
f 688/1/6 689/1/6 694/1/6
f 691/3/6 692/3/6 695/3/6
f 690/1/6 691/1/6 695/1/6
f 695/3/6 692/3/6 696/3/6
f 693/1/6 694/1/6 698/1/6
f 696/3/6 697/3/6 699/3/6
f 695/1/6 696/1/6 699/1/6
f 697/1/6 698/1/6 700/1/6
f 699/3/6 697/3/6 700/3/6
f 695/1/6 699/1/6 701/1/6
f 576/1/6 685/1/6 701/1/6
f 699/1/6 700/1/6 701/1/6
f 685/1/6 690/1/6 701/1/6
f 690/1/6 695/1/6 701/1/6
f 700/1/6 698/1/6 702/1/6
f 701/1/6 700/1/6 702/1/6
f 689/1/6 577/1/6 702/1/6
f 698/1/6 694/1/6 702/1/6
f 694/1/6 689/1/6 702/1/6
