# MagicaVoxel @ ephtracy

# material
mtllib CornerSE.mtl
usemtl palette

# normals
vn -1 0 0
vn 1 0 0
vn 0 0 1
vn 0 0 -1
vn 0 -1 0
vn 0 1 0

# texcoords
vt 0.970703 0.5
vt 0.978516 0.5
vt 0.982422 0.5

# verts
v -16 0 13
v -16 0 -11
v -16 0 -13
v -16 30 13
v -16 30 12
v -16 31 13
v -16 31 12
v -16 31 11
v -16 31 -12
v -16 31 -13
v -16 32 12
v -16 32 11
v -16 32 -11
v -16 32 -12
v -14 0 -13
v -14 0 -14
v -14 31 -12
v -14 31 -13
v -14 31 -14
v -14 32 -12
v -14 32 -13
v -13 0 -14
v -13 0 -16
v -13 31 -13
v -13 31 -14
v -13 31 -16
v -13 32 -13
v -13 32 -14
v -12 31 -14
v -12 31 -16
v -12 32 -14
v -12 32 -16
v 6 29 6
v 6 29 -6
v 6 31 6
v 6 31 -6
v 6 32 6
v 6 32 -6
v -6 29 6
v -6 29 -6
v -6 31 6
v -6 31 -6
v -6 32 6
v -6 32 -6
v 11 0 13
v 11 0 12
v 11 30 13
v 11 30 12
v 11 31 13
v 11 31 12
v 11 31 11
v 11 32 12
v 11 32 11
v 12 0 12
v 12 0 11
v 12 30 12
v 12 30 11
v 12 31 12
v 12 31 11
v 12 31 -16
v 12 32 11
v 12 32 -16
v 13 0 11
v 13 0 -16
v 13 30 11
v 13 30 -16
v 13 31 11
v 13 31 -16
v -16 0 13
v -16 30 13
v -16 31 13
v 11 0 13
v 11 30 13
v 11 31 13
v -16 31 12
v -16 32 12
v 11 0 12
v 11 30 12
v 11 31 12
v 11 32 12
v 12 0 12
v 12 30 12
v 12 31 12
v 11 31 11
v 11 32 11
v 12 0 11
v 12 30 11
v 12 31 11
v 12 32 11
v 13 0 11
v 13 30 11
v 13 31 11
v -6 29 -6
v -6 31 -6
v -6 32 -6
v 6 29 -6
v 6 31 -6
v 6 32 -6
v -6 29 6
v -6 31 6
v -6 32 6
v 6 29 6
v 6 31 6
v 6 32 6
v -16 31 -12
v -16 32 -12
v -14 31 -12
v -14 32 -12
v -16 0 -13
v -16 31 -13
v -14 0 -13
v -14 31 -13
v -14 32 -13
v -13 31 -13
v -13 32 -13
v -14 0 -14
v -14 31 -14
v -13 0 -14
v -13 31 -14
v -13 32 -14
v -12 31 -14
v -12 32 -14
v -13 0 -16
v -13 31 -16
v -12 31 -16
v -12 32 -16
v -11 0 -16
v -11 32 -16
v 11 31 -16
v 11 32 -16
v 12 30 -16
v 12 31 -16
v 12 32 -16
v 13 0 -16
v 13 30 -16
v 13 31 -16
v -16 0 13
v 11 0 13
v 11 0 12
v 12 0 12
v 12 0 11
v 13 0 11
v -16 0 -11
v -13 0 -11
v -13 0 -12
v -12 0 -12
v -16 0 -13
v -14 0 -13
v -12 0 -13
v -11 0 -13
v -14 0 -14
v -13 0 -14
v -13 0 -16
v -11 0 -16
v 13 0 -16
v -6 29 6
v 6 29 6
v -6 29 -6
v 6 29 -6
v -16 31 13
v 11 31 13
v -16 31 12
v 11 31 12
v 12 31 12
v 11 31 11
v 12 31 11
v 13 31 11
v -16 31 -12
v -14 31 -12
v -16 31 -13
v -14 31 -13
v -13 31 -13
v -14 31 -14
v -13 31 -14
v -12 31 -14
v -13 31 -16
v -12 31 -16
v 12 31 -16
v 13 31 -16
v -16 32 12
v 11 32 12
v -16 32 11
v 10 32 11
v 11 32 11
v 12 32 11
v 10 32 10
v 11 32 10
v -6 32 7
v 6 32 7
v -7 32 6
v -6 32 6
v 6 32 6
v 7 32 6
v -7 32 -6
v -6 32 -6
v 6 32 -6
v 7 32 -6
v -6 32 -7
v 6 32 -7
v -16 32 -11
v -13 32 -11
v -16 32 -12
v -14 32 -12
v -13 32 -12
v -12 32 -12
v -14 32 -13
v -13 32 -13
v -12 32 -13
v -11 32 -13
v -13 32 -14
v -12 32 -14
v -12 32 -16
v -11 32 -16
v 11 32 -16
v 12 32 -16

# faces
f 4/1/1 2/1/1 1/1/1
f 5/1/1 2/1/1 4/1/1
f 6/3/1 5/3/1 4/3/1
f 7/1/1 2/1/1 5/1/1
f 7/3/1 5/3/1 6/3/1
f 8/1/1 2/1/1 7/1/1
f 9/2/1 3/2/1 2/2/1
f 10/2/1 3/2/1 9/2/1
f 11/3/1 8/3/1 7/3/1
f 12/1/1 2/1/1 8/1/1
f 12/3/1 8/3/1 11/3/1
f 13/2/1 9/2/1 2/2/1
f 13/1/1 2/1/1 12/1/1
f 14/2/1 9/2/1 13/2/1
f 18/2/1 16/2/1 15/2/1
f 19/2/1 16/2/1 18/2/1
f 20/2/1 18/2/1 17/2/1
f 21/2/1 18/2/1 20/2/1
f 25/2/1 23/2/1 22/2/1
f 26/2/1 23/2/1 25/2/1
f 27/2/1 25/2/1 24/2/1
f 28/2/1 25/2/1 27/2/1
f 31/2/1 30/2/1 29/2/1
f 32/2/1 30/2/1 31/2/1
f 35/1/1 34/1/1 33/1/1
f 36/1/1 34/1/1 35/1/1
f 37/2/1 36/2/1 35/2/1
f 38/2/1 36/2/1 37/2/1
f 39/1/2 40/1/2 41/1/2
f 41/1/2 40/1/2 42/1/2
f 41/2/2 42/2/2 43/2/2
f 43/2/2 42/2/2 44/2/2
f 45/1/2 46/1/2 47/1/2
f 47/1/2 46/1/2 48/1/2
f 47/3/2 48/3/2 49/3/2
f 49/3/2 48/3/2 50/3/2
f 50/3/2 51/3/2 52/3/2
f 52/3/2 51/3/2 53/3/2
f 54/1/2 55/1/2 56/1/2
f 56/1/2 55/1/2 57/1/2
f 56/3/2 57/3/2 58/3/2
f 58/3/2 57/3/2 59/3/2
f 59/3/2 60/3/2 61/3/2
f 61/3/2 60/3/2 62/3/2
f 63/1/2 64/1/2 65/1/2
f 65/1/2 64/1/2 66/1/2
f 65/3/2 66/3/2 67/3/2
f 67/3/2 66/3/2 68/3/2
f 72/1/3 70/1/3 69/1/3
f 73/3/3 71/3/3 70/3/3
f 73/1/3 70/1/3 72/1/3
f 74/3/3 71/3/3 73/3/3
f 79/3/3 76/3/3 75/3/3
f 80/3/3 76/3/3 79/3/3
f 81/1/3 78/1/3 77/1/3
f 82/3/3 79/3/3 78/3/3
f 82/1/3 78/1/3 81/1/3
f 83/3/3 79/3/3 82/3/3
f 88/3/3 85/3/3 84/3/3
f 89/3/3 85/3/3 88/3/3
f 90/1/3 87/1/3 86/1/3
f 91/3/3 88/3/3 87/3/3
f 91/1/3 87/1/3 90/1/3
f 92/3/3 88/3/3 91/3/3
f 96/1/3 94/1/3 93/1/3
f 97/2/3 95/2/3 94/2/3
f 97/1/3 94/1/3 96/1/3
f 98/2/3 95/2/3 97/2/3
f 99/1/4 100/1/4 102/1/4
f 100/2/4 101/2/4 103/2/4
f 102/1/4 100/1/4 103/1/4
f 103/2/4 101/2/4 104/2/4
f 105/2/4 106/2/4 107/2/4
f 107/2/4 106/2/4 108/2/4
f 109/2/4 110/2/4 111/2/4
f 111/2/4 110/2/4 112/2/4
f 112/2/4 113/2/4 114/2/4
f 114/2/4 113/2/4 115/2/4
f 116/2/4 117/2/4 118/2/4
f 118/2/4 117/2/4 119/2/4
f 119/2/4 120/2/4 121/2/4
f 121/2/4 120/2/4 122/2/4
f 123/2/4 124/2/4 125/2/4
f 123/2/4 125/2/4 127/2/4
f 125/2/4 126/2/4 127/2/4
f 127/2/4 126/2/4 128/2/4
f 127/1/4 128/1/4 129/1/4
f 129/1/4 128/1/4 130/1/4
f 127/1/4 129/1/4 131/1/4
f 129/3/4 130/3/4 132/3/4
f 131/1/4 129/1/4 132/1/4
f 132/3/4 130/3/4 133/3/4
f 127/1/4 131/1/4 134/1/4
f 131/3/4 132/3/4 135/3/4
f 134/1/4 131/1/4 135/1/4
f 135/3/4 132/3/4 136/3/4
f 139/1/5 138/1/5 137/1/5
f 141/1/5 140/1/5 139/1/5
f 143/1/5 139/1/5 137/1/5
f 143/1/5 142/1/5 141/1/5
f 143/1/5 141/1/5 139/1/5
f 144/1/5 142/1/5 143/1/5
f 145/2/5 144/2/5 143/2/5
f 145/1/5 142/1/5 144/1/5
f 146/1/5 142/1/5 145/1/5
f 147/2/5 145/2/5 143/2/5
f 147/2/5 146/2/5 145/2/5
f 148/2/5 146/2/5 147/2/5
f 149/1/5 142/1/5 146/1/5
f 149/2/5 146/2/5 148/2/5
f 150/1/5 142/1/5 149/1/5
f 151/2/5 149/2/5 148/2/5
f 151/2/5 150/2/5 149/2/5
f 152/2/5 150/2/5 151/2/5
f 153/2/5 150/2/5 152/2/5
f 154/1/5 142/1/5 150/1/5
f 154/2/5 150/2/5 153/2/5
f 155/1/5 142/1/5 154/1/5
f 156/1/6 157/1/6 158/1/6
f 158/1/6 157/1/6 159/1/6
f 160/3/6 161/3/6 162/3/6
f 162/3/6 161/3/6 163/3/6
f 163/3/6 164/3/6 165/3/6
f 165/3/6 164/3/6 166/3/6
f 168/2/6 169/2/6 170/2/6
f 170/2/6 169/2/6 171/2/6
f 171/2/6 172/2/6 173/2/6
f 173/2/6 172/2/6 174/2/6
f 174/2/6 175/2/6 176/2/6
f 176/2/6 175/2/6 177/2/6
f 166/3/6 167/3/6 178/3/6
f 178/3/6 167/3/6 179/3/6
f 180/3/6 181/3/6 182/3/6
f 182/3/6 181/3/6 183/3/6
f 183/3/6 181/3/6 184/3/6
f 182/1/6 183/1/6 186/1/6
f 184/3/6 185/3/6 186/3/6
f 183/3/6 184/3/6 186/3/6
f 186/3/6 185/3/6 187/3/6
f 182/1/6 186/1/6 188/1/6
f 186/1/6 187/1/6 188/1/6
f 188/1/6 187/1/6 189/1/6
f 182/1/6 188/1/6 190/1/6
f 188/2/6 189/2/6 191/2/6
f 190/1/6 188/1/6 191/1/6
f 189/1/6 187/1/6 192/1/6
f 191/2/6 189/2/6 192/2/6
f 192/1/6 187/1/6 193/1/6
f 190/2/6 191/2/6 194/2/6
f 182/1/6 190/1/6 194/1/6
f 194/2/6 191/2/6 195/2/6
f 192/2/6 193/2/6 196/2/6
f 193/1/6 187/1/6 197/1/6
f 196/2/6 193/2/6 197/2/6
f 195/2/6 196/2/6 198/2/6
f 194/1/6 195/1/6 198/1/6
f 196/1/6 197/1/6 199/1/6
f 198/2/6 196/2/6 199/2/6
f 194/1/6 198/1/6 200/1/6
f 182/1/6 194/1/6 200/1/6
f 198/1/6 199/1/6 200/1/6
f 200/1/6 199/1/6 201/1/6
f 200/2/6 201/2/6 202/2/6
f 202/2/6 201/2/6 203/2/6
f 201/1/6 199/1/6 204/1/6
f 203/2/6 201/2/6 204/2/6
f 204/1/6 199/1/6 205/1/6
f 203/2/6 204/2/6 206/2/6
f 204/2/6 205/2/6 206/2/6
f 206/2/6 205/2/6 207/2/6
f 205/1/6 199/1/6 208/1/6
f 207/2/6 205/2/6 208/2/6
f 208/1/6 199/1/6 209/1/6
f 207/2/6 208/2/6 210/2/6
f 208/2/6 209/2/6 210/2/6
f 210/2/6 209/2/6 211/2/6
f 211/2/6 209/2/6 212/2/6
f 209/1/6 199/1/6 213/1/6
f 212/2/6 209/2/6 213/2/6
f 187/3/6 185/3/6 214/3/6
f 213/1/6 199/1/6 214/1/6
f 197/1/6 187/1/6 214/1/6
f 199/1/6 197/1/6 214/1/6
f 214/3/6 185/3/6 215/3/6
