# MagicaVoxel @ ephtracy

# material
mtllib 3JointS.mtl
usemtl palette

# normals
vn -1 0 0
vn 1 0 0
vn 0 0 1
vn 0 0 -1
vn 0 -1 0
vn 0 1 0

# texcoords
vt 0.970703 0.5
vt 0.978516 0.5
vt 0.982422 0.5

# verts
v -16 0 13
v -16 0 -11
v -16 0 -13
v -16 31 13
v -16 31 11
v -16 32 13
v -16 32 11
v -16 32 -11
v -16 32 -13
v -14 0 -13
v -14 0 -14
v -14 32 -13
v -14 32 -14
v -13 0 -14
v -13 0 -16
v -13 32 -14
v -13 32 -16
v 6 29 6
v 6 29 -6
v 6 31 6
v 6 31 -6
v 6 32 6
v 6 32 -6
v -6 29 6
v -6 29 -6
v -6 31 6
v -6 31 -6
v -6 32 6
v -6 32 -6
v 13 0 -14
v 13 0 -16
v 13 31 -14
v 13 31 -16
v 13 32 -14
v 13 32 -16
v 14 0 -13
v 14 0 -14
v 14 32 -13
v 14 32 -14
v 16 0 13
v 16 0 -11
v 16 0 -13
v 16 31 13
v 16 31 11
v 16 32 13
v 16 32 11
v 16 32 -11
v 16 32 -13
v -16 0 13
v -16 31 13
v -16 32 13
v 16 0 13
v 16 31 13
v 16 32 13
v -6 29 -6
v -6 31 -6
v -6 32 -6
v 6 29 -6
v 6 31 -6
v 6 32 -6
v -6 29 6
v -6 31 6
v -6 32 6
v 6 29 6
v 6 31 6
v 6 32 6
v -16 0 -13
v -16 32 -13
v -14 0 -13
v -14 32 -13
v 14 0 -13
v 14 32 -13
v 16 0 -13
v 16 32 -13
v -14 0 -14
v -14 32 -14
v -13 0 -14
v -13 32 -14
v 13 0 -14
v 13 31 -14
v 13 32 -14
v 14 0 -14
v 14 32 -14
v -13 0 -16
v -13 32 -16
v -11 0 -16
v -11 32 -16
v 11 31 -16
v 11 32 -16
v 13 0 -16
v 13 31 -16
v 13 32 -16
v -16 0 13
v 16 0 13
v -16 0 -11
v -13 0 -11
v 13 0 -11
v 16 0 -11
v -13 0 -12
v -12 0 -12
v 12 0 -12
v 13 0 -12
v -16 0 -13
v -14 0 -13
v -12 0 -13
v -11 0 -13
v 12 0 -13
v 13 0 -13
v 14 0 -13
v 16 0 -13
v -14 0 -14
v -13 0 -14
v 13 0 -14
v 14 0 -14
v -13 0 -16
v -11 0 -16
v 13 0 -16
v -6 29 6
v 6 29 6
v -6 29 -6
v 6 29 -6
v -16 32 13
v 16 32 13
v -16 32 11
v 16 32 11
v -6 32 7
v 6 32 7
v -7 32 6
v -6 32 6
v 6 32 6
v 7 32 6
v -7 32 -6
v -6 32 -6
v 6 32 -6
v 7 32 -6
v -6 32 -7
v 6 32 -7
v -16 32 -11
v -13 32 -11
v 13 32 -11
v 16 32 -11
v -13 32 -12
v -12 32 -12
v 12 32 -12
v 13 32 -12
v -16 32 -13
v -14 32 -13
v -12 32 -13
v -11 32 -13
v 11 32 -13
v 12 32 -13
v 13 32 -13
v 14 32 -13
v 16 32 -13
v -14 32 -14
v -13 32 -14
v 13 32 -14
v 14 32 -14
v -13 32 -16
v -11 32 -16
v 11 32 -16
v 13 32 -16

# faces
f 4/1/1 2/1/1 1/1/1
f 5/1/1 2/1/1 4/1/1
f 6/3/1 5/3/1 4/3/1
f 7/1/1 2/1/1 5/1/1
f 7/3/1 5/3/1 6/3/1
f 8/2/1 3/2/1 2/2/1
f 8/1/1 2/1/1 7/1/1
f 9/2/1 3/2/1 8/2/1
f 12/2/1 11/2/1 10/2/1
f 13/2/1 11/2/1 12/2/1
f 16/2/1 15/2/1 14/2/1
f 17/2/1 15/2/1 16/2/1
f 20/1/1 19/1/1 18/1/1
f 21/1/1 19/1/1 20/1/1
f 22/2/1 21/2/1 20/2/1
f 23/2/1 21/2/1 22/2/1
f 24/1/2 25/1/2 26/1/2
f 26/1/2 25/1/2 27/1/2
f 26/2/2 27/2/2 28/2/2
f 28/2/2 27/2/2 29/2/2
f 30/1/2 31/1/2 32/1/2
f 32/1/2 31/1/2 33/1/2
f 32/3/2 33/3/2 34/3/2
f 34/3/2 33/3/2 35/3/2
f 36/2/2 37/2/2 38/2/2
f 38/2/2 37/2/2 39/2/2
f 40/1/2 41/1/2 43/1/2
f 43/1/2 41/1/2 44/1/2
f 43/3/2 44/3/2 45/3/2
f 44/1/2 41/1/2 46/1/2
f 45/3/2 44/3/2 46/3/2
f 41/2/2 42/2/2 47/2/2
f 46/1/2 41/1/2 47/1/2
f 47/2/2 42/2/2 48/2/2
f 52/1/3 50/1/3 49/1/3
f 53/3/3 51/3/3 50/3/3
f 53/1/3 50/1/3 52/1/3
f 54/3/3 51/3/3 53/3/3
f 58/1/3 56/1/3 55/1/3
f 59/2/3 57/2/3 56/2/3
f 59/1/3 56/1/3 58/1/3
f 60/2/3 57/2/3 59/2/3
f 61/1/4 62/1/4 64/1/4
f 62/2/4 63/2/4 65/2/4
f 64/1/4 62/1/4 65/1/4
f 65/2/4 63/2/4 66/2/4
f 67/2/4 68/2/4 69/2/4
f 69/2/4 68/2/4 70/2/4
f 71/2/4 72/2/4 73/2/4
f 73/2/4 72/2/4 74/2/4
f 75/2/4 76/2/4 77/2/4
f 77/2/4 76/2/4 78/2/4
f 79/2/4 80/2/4 82/2/4
f 80/2/4 81/2/4 82/2/4
f 82/2/4 81/2/4 83/2/4
f 84/2/4 85/2/4 86/2/4
f 86/2/4 85/2/4 87/2/4
f 86/1/4 87/1/4 88/1/4
f 88/1/4 87/1/4 89/1/4
f 86/1/4 88/1/4 90/1/4
f 88/3/4 89/3/4 91/3/4
f 90/1/4 88/1/4 91/1/4
f 91/3/4 89/3/4 92/3/4
f 95/1/5 94/1/5 93/1/5
f 96/1/5 94/1/5 95/1/5
f 97/1/5 94/1/5 96/1/5
f 98/1/5 94/1/5 97/1/5
f 99/2/5 96/2/5 95/2/5
f 99/1/5 97/1/5 96/1/5
f 100/1/5 97/1/5 99/1/5
f 101/1/5 97/1/5 100/1/5
f 102/2/5 98/2/5 97/2/5
f 102/1/5 97/1/5 101/1/5
f 103/2/5 99/2/5 95/2/5
f 103/2/5 100/2/5 99/2/5
f 104/2/5 100/2/5 103/2/5
f 105/1/5 101/1/5 100/1/5
f 105/2/5 100/2/5 104/2/5
f 106/1/5 101/1/5 105/1/5
f 107/2/5 102/2/5 101/2/5
f 107/1/5 101/1/5 106/1/5
f 108/2/5 98/2/5 102/2/5
f 108/2/5 102/2/5 107/2/5
f 109/2/5 98/2/5 108/2/5
f 110/2/5 98/2/5 109/2/5
f 111/2/5 106/2/5 105/2/5
f 111/2/5 105/2/5 104/2/5
f 112/2/5 106/2/5 111/2/5
f 113/1/5 107/1/5 106/1/5
f 113/2/5 109/2/5 108/2/5
f 113/1/5 108/1/5 107/1/5
f 114/2/5 109/2/5 113/2/5
f 115/2/5 106/2/5 112/2/5
f 116/1/5 113/1/5 106/1/5
f 116/2/5 106/2/5 115/2/5
f 117/1/5 113/1/5 116/1/5
f 118/1/6 119/1/6 120/1/6
f 120/1/6 119/1/6 121/1/6
f 122/3/6 123/3/6 124/3/6
f 124/3/6 123/3/6 125/3/6
f 124/1/6 125/1/6 126/1/6
f 126/1/6 125/1/6 127/1/6
f 124/1/6 126/1/6 128/1/6
f 126/2/6 127/2/6 129/2/6
f 128/1/6 126/1/6 129/1/6
f 127/1/6 125/1/6 130/1/6
f 129/2/6 127/2/6 130/2/6
f 130/1/6 125/1/6 131/1/6
f 128/2/6 129/2/6 132/2/6
f 124/1/6 128/1/6 132/1/6
f 132/2/6 129/2/6 133/2/6
f 130/2/6 131/2/6 134/2/6
f 131/1/6 125/1/6 135/1/6
f 134/2/6 131/2/6 135/2/6
f 133/2/6 134/2/6 136/2/6
f 132/1/6 133/1/6 136/1/6
f 134/1/6 135/1/6 137/1/6
f 136/2/6 134/2/6 137/2/6
f 132/1/6 136/1/6 138/1/6
f 124/1/6 132/1/6 138/1/6
f 136/1/6 137/1/6 138/1/6
f 138/1/6 137/1/6 139/1/6
f 135/1/6 125/1/6 140/1/6
f 139/1/6 137/1/6 140/1/6
f 137/1/6 135/1/6 140/1/6
f 140/1/6 125/1/6 141/1/6
f 138/2/6 139/2/6 142/2/6
f 139/1/6 140/1/6 142/1/6
f 142/1/6 140/1/6 143/1/6
f 143/1/6 140/1/6 144/1/6
f 140/2/6 141/2/6 145/2/6
f 144/1/6 140/1/6 145/1/6
f 138/2/6 142/2/6 146/2/6
f 142/2/6 143/2/6 146/2/6
f 146/2/6 143/2/6 147/2/6
f 143/1/6 144/1/6 148/1/6
f 147/2/6 143/2/6 148/2/6
f 148/1/6 144/1/6 149/1/6
f 149/1/6 144/1/6 150/1/6
f 144/2/6 145/2/6 151/2/6
f 150/1/6 144/1/6 151/1/6
f 145/2/6 141/2/6 152/2/6
f 151/2/6 145/2/6 152/2/6
f 152/2/6 141/2/6 153/2/6
f 153/2/6 141/2/6 154/2/6
f 147/2/6 148/2/6 155/2/6
f 148/2/6 149/2/6 155/2/6
f 155/2/6 149/2/6 156/2/6
f 150/3/6 151/3/6 157/3/6
f 152/2/6 153/2/6 157/2/6
f 151/3/6 152/3/6 157/3/6
f 157/2/6 153/2/6 158/2/6
f 156/2/6 149/2/6 159/2/6
f 149/1/6 150/1/6 160/1/6
f 159/2/6 149/2/6 160/2/6
f 150/3/6 157/3/6 161/3/6
f 160/1/6 150/1/6 161/1/6
f 161/3/6 157/3/6 162/3/6
