# MagicaVoxel @ ephtracy

# material
mtllib CornerSW.mtl
usemtl palette

# normals
vn -1 0 0
vn 1 0 0
vn 0 0 1
vn 0 0 -1
vn 0 -1 0
vn 0 1 0

# texcoords
vt 0.970703 0.5
vt 0.978516 0.5
vt 0.982422 0.5

# verts
v -13 0 11
v -13 0 -16
v -13 32 11
v -13 32 -16
v -12 0 12
v -12 0 11
v -12 31 12
v -12 31 11
v -12 32 12
v -12 32 11
v -11 0 13
v -11 0 12
v -11 31 13
v -11 31 12
v -11 32 13
v -11 32 12
v 6 29 6
v 6 29 -6
v 6 31 6
v 6 31 -6
v 6 32 6
v 6 32 -6
v -6 29 6
v -6 29 -6
v -6 31 6
v -6 31 -6
v -6 32 6
v -6 32 -6
v 13 0 -14
v 13 0 -16
v 13 31 -14
v 13 31 -16
v 13 32 -14
v 13 32 -16
v 14 0 -13
v 14 0 -14
v 14 32 -13
v 14 32 -14
v 16 0 13
v 16 0 -11
v 16 0 -13
v 16 31 13
v 16 31 11
v 16 32 13
v 16 32 11
v 16 32 -11
v 16 32 -13
v -11 0 13
v -11 31 13
v -11 32 13
v 16 0 13
v 16 31 13
v 16 32 13
v -12 0 12
v -12 31 12
v -12 32 12
v -11 0 12
v -11 31 12
v -11 32 12
v -13 0 11
v -13 32 11
v -12 0 11
v -12 31 11
v -12 32 11
v -6 29 -6
v -6 31 -6
v -6 32 -6
v 6 29 -6
v 6 31 -6
v 6 32 -6
v -6 29 6
v -6 31 6
v -6 32 6
v 6 29 6
v 6 31 6
v 6 32 6
v 14 0 -13
v 14 32 -13
v 16 0 -13
v 16 32 -13
v 13 0 -14
v 13 31 -14
v 13 32 -14
v 14 0 -14
v 14 32 -14
v -13 0 -16
v -13 32 -16
v -11 0 -16
v -11 32 -16
v 11 31 -16
v 11 32 -16
v 13 0 -16
v 13 31 -16
v 13 32 -16
v -11 0 13
v 16 0 13
v -12 0 12
v -11 0 12
v -13 0 11
v -12 0 11
v -11 0 11
v 13 0 -11
v 16 0 -11
v 12 0 -12
v 13 0 -12
v 12 0 -13
v 13 0 -13
v 14 0 -13
v 16 0 -13
v 13 0 -14
v 14 0 -14
v -13 0 -16
v -11 0 -16
v 13 0 -16
v -6 29 6
v 6 29 6
v -6 29 -6
v 6 29 -6
v -11 32 13
v 16 32 13
v -12 32 12
v -11 32 12
v -13 32 11
v -12 32 11
v -11 32 11
v -10 32 11
v 16 32 11
v -11 32 10
v -10 32 10
v -6 32 7
v 6 32 7
v -7 32 6
v -6 32 6
v 6 32 6
v 7 32 6
v -7 32 -6
v -6 32 -6
v 6 32 -6
v 7 32 -6
v -6 32 -7
v 6 32 -7
v 13 32 -11
v 16 32 -11
v 12 32 -12
v 13 32 -12
v 11 32 -13
v 12 32 -13
v 13 32 -13
v 14 32 -13
v 16 32 -13
v 13 32 -14
v 14 32 -14
v -13 32 -16
v -11 32 -16
v 11 32 -16
v 13 32 -16

# faces
f 3/2/1 2/2/1 1/2/1
f 4/2/1 2/2/1 3/2/1
f 7/1/1 6/1/1 5/1/1
f 8/1/1 6/1/1 7/1/1
f 9/3/1 8/3/1 7/3/1
f 10/3/1 8/3/1 9/3/1
f 13/1/1 12/1/1 11/1/1
f 14/1/1 12/1/1 13/1/1
f 15/3/1 14/3/1 13/3/1
f 16/3/1 14/3/1 15/3/1
f 19/1/1 18/1/1 17/1/1
f 20/1/1 18/1/1 19/1/1
f 21/2/1 20/2/1 19/2/1
f 22/2/1 20/2/1 21/2/1
f 23/1/2 24/1/2 25/1/2
f 25/1/2 24/1/2 26/1/2
f 25/2/2 26/2/2 27/2/2
f 27/2/2 26/2/2 28/2/2
f 29/1/2 30/1/2 31/1/2
f 31/1/2 30/1/2 32/1/2
f 31/3/2 32/3/2 33/3/2
f 33/3/2 32/3/2 34/3/2
f 35/2/2 36/2/2 37/2/2
f 37/2/2 36/2/2 38/2/2
f 39/1/2 40/1/2 42/1/2
f 42/1/2 40/1/2 43/1/2
f 42/3/2 43/3/2 44/3/2
f 43/1/2 40/1/2 45/1/2
f 44/3/2 43/3/2 45/3/2
f 40/2/2 41/2/2 46/2/2
f 45/1/2 40/1/2 46/1/2
f 46/2/2 41/2/2 47/2/2
f 51/1/3 49/1/3 48/1/3
f 52/3/3 50/3/3 49/3/3
f 52/1/3 49/1/3 51/1/3
f 53/3/3 50/3/3 52/3/3
f 57/1/3 55/1/3 54/1/3
f 58/3/3 56/3/3 55/3/3
f 58/1/3 55/1/3 57/1/3
f 59/3/3 56/3/3 58/3/3
f 62/2/3 61/2/3 60/2/3
f 63/2/3 61/2/3 62/2/3
f 64/2/3 61/2/3 63/2/3
f 68/1/3 66/1/3 65/1/3
f 69/2/3 67/2/3 66/2/3
f 69/1/3 66/1/3 68/1/3
f 70/2/3 67/2/3 69/2/3
f 71/1/4 72/1/4 74/1/4
f 72/2/4 73/2/4 75/2/4
f 74/1/4 72/1/4 75/1/4
f 75/2/4 73/2/4 76/2/4
f 77/2/4 78/2/4 79/2/4
f 79/2/4 78/2/4 80/2/4
f 81/2/4 82/2/4 84/2/4
f 82/2/4 83/2/4 84/2/4
f 84/2/4 83/2/4 85/2/4
f 86/2/4 87/2/4 88/2/4
f 88/2/4 87/2/4 89/2/4
f 88/1/4 89/1/4 90/1/4
f 90/1/4 89/1/4 91/1/4
f 88/1/4 90/1/4 92/1/4
f 90/3/4 91/3/4 93/3/4
f 92/1/4 90/1/4 93/1/4
f 93/3/4 91/3/4 94/3/4
f 98/1/5 96/1/5 95/1/5
f 100/1/5 98/1/5 97/1/5
f 101/1/5 96/1/5 98/1/5
f 101/1/5 98/1/5 100/1/5
f 102/1/5 96/1/5 101/1/5
f 103/1/5 96/1/5 102/1/5
f 104/1/5 102/1/5 101/1/5
f 105/2/5 103/2/5 102/2/5
f 105/1/5 102/1/5 104/1/5
f 106/1/5 104/1/5 101/1/5
f 106/2/5 105/2/5 104/2/5
f 107/2/5 103/2/5 105/2/5
f 107/2/5 105/2/5 106/2/5
f 108/2/5 103/2/5 107/2/5
f 109/2/5 103/2/5 108/2/5
f 110/1/5 107/1/5 106/1/5
f 110/2/5 108/2/5 107/2/5
f 111/2/5 108/2/5 110/2/5
f 112/2/5 100/2/5 99/2/5
f 112/2/5 101/2/5 100/2/5
f 113/1/5 110/1/5 106/1/5
f 113/2/5 101/2/5 112/2/5
f 113/1/5 106/1/5 101/1/5
f 114/1/5 110/1/5 113/1/5
f 115/1/6 116/1/6 117/1/6
f 117/1/6 116/1/6 118/1/6
f 119/3/6 120/3/6 122/3/6
f 121/3/6 122/3/6 124/3/6
f 122/3/6 120/3/6 125/3/6
f 124/3/6 122/3/6 125/3/6
f 125/3/6 120/3/6 126/3/6
f 126/3/6 120/3/6 127/3/6
f 123/2/6 124/2/6 128/2/6
f 124/2/6 125/2/6 128/2/6
f 125/3/6 126/3/6 128/3/6
f 126/1/6 127/1/6 129/1/6
f 128/3/6 126/3/6 129/3/6
f 128/1/6 129/1/6 130/1/6
f 129/1/6 127/1/6 130/1/6
f 130/1/6 127/1/6 131/1/6
f 128/1/6 130/1/6 132/1/6
f 130/2/6 131/2/6 133/2/6
f 132/1/6 130/1/6 133/1/6
f 131/1/6 127/1/6 134/1/6
f 133/2/6 131/2/6 134/2/6
f 134/1/6 127/1/6 135/1/6
f 132/2/6 133/2/6 136/2/6
f 128/1/6 132/1/6 136/1/6
f 136/2/6 133/2/6 137/2/6
f 134/2/6 135/2/6 138/2/6
f 135/1/6 127/1/6 139/1/6
f 138/2/6 135/2/6 139/2/6
f 137/2/6 138/2/6 140/2/6
f 136/1/6 137/1/6 140/1/6
f 138/1/6 139/1/6 141/1/6
f 140/2/6 138/2/6 141/2/6
f 139/1/6 127/1/6 142/1/6
f 141/1/6 139/1/6 142/1/6
f 140/1/6 141/1/6 142/1/6
f 142/1/6 127/1/6 143/1/6
f 140/1/6 142/1/6 144/1/6
f 142/2/6 143/2/6 145/2/6
f 144/1/6 142/1/6 145/1/6
f 140/1/6 144/1/6 146/1/6
f 144/2/6 145/2/6 147/2/6
f 146/1/6 144/1/6 147/1/6
f 145/2/6 143/2/6 148/2/6
f 147/2/6 145/2/6 148/2/6
f 148/2/6 143/2/6 149/2/6
f 149/2/6 143/2/6 150/2/6
f 146/3/6 147/3/6 151/3/6
f 147/3/6 148/3/6 151/3/6
f 148/2/6 149/2/6 151/2/6
f 151/2/6 149/2/6 152/2/6
f 123/2/6 128/2/6 153/2/6
f 136/1/6 140/1/6 154/1/6
f 153/2/6 128/2/6 154/2/6
f 128/1/6 136/1/6 154/1/6
f 140/1/6 146/1/6 154/1/6
f 146/3/6 151/3/6 155/3/6
f 154/1/6 146/1/6 155/1/6
f 155/3/6 151/3/6 156/3/6
