# MagicaVoxel @ ephtracy

# material
mtllib CornerNW.mtl
usemtl palette

# normals
vn -1 0 0
vn 1 0 0
vn 0 0 1
vn 0 0 -1
vn 0 -1 0
vn 0 1 0

# texcoords
vt 0.970703 0.5
vt 0.978516 0.5
vt 0.982422 0.5

# verts
v -13 0 16
v -13 0 -11
v -13 31 16
v -13 31 -11
v -12 0 -11
v -12 0 -12
v -12 31 16
v -12 31 -11
v -12 31 -12
v -12 32 16
v -12 32 -11
v -11 0 -12
v -11 0 -13
v -11 31 -11
v -11 31 -12
v -11 31 -13
v -11 32 -11
v -11 32 -12
v 6 29 6
v 6 29 -6
v 6 31 6
v 6 31 -6
v 6 32 6
v 6 32 -6
v -6 29 6
v -6 29 -6
v -6 31 6
v -6 31 -6
v -6 32 6
v -6 32 -6
v 12 31 16
v 12 31 14
v 12 32 16
v 12 32 14
v 13 0 16
v 13 0 14
v 13 30 16
v 13 30 14
v 13 31 16
v 13 31 14
v 13 31 13
v 13 32 14
v 13 32 13
v 14 0 14
v 14 0 13
v 14 30 14
v 14 30 13
v 14 31 14
v 14 31 13
v 14 31 12
v 14 32 13
v 14 32 12
v 16 0 13
v 16 0 -11
v 16 0 -13
v 16 30 13
v 16 30 12
v 16 31 13
v 16 31 12
v 16 31 11
v 16 31 -12
v 16 31 -13
v 16 32 12
v 16 32 11
v 16 32 -11
v 16 32 -12
v -13 0 16
v -13 31 16
v -12 31 16
v -12 32 16
v -11 0 16
v -11 32 16
v 11 31 16
v 11 32 16
v 12 30 16
v 12 31 16
v 12 32 16
v 13 0 16
v 13 30 16
v 13 31 16
v 12 31 14
v 12 32 14
v 13 0 14
v 13 30 14
v 13 31 14
v 13 32 14
v 14 0 14
v 14 30 14
v 14 31 14
v 13 31 13
v 13 32 13
v 14 0 13
v 14 30 13
v 14 31 13
v 14 32 13
v 16 0 13
v 16 30 13
v 16 31 13
v 14 31 12
v 14 32 12
v 16 31 12
v 16 32 12
v -6 29 -6
v -6 31 -6
v -6 32 -6
v 6 29 -6
v 6 31 -6
v 6 32 -6
v -6 29 6
v -6 31 6
v -6 32 6
v 6 29 6
v 6 31 6
v 6 32 6
v -13 0 -11
v -13 31 -11
v -12 0 -11
v -12 31 -11
v -12 32 -11
v -11 31 -11
v -11 32 -11
v -12 0 -12
v -12 31 -12
v -11 0 -12
v -11 31 -12
v -11 32 -12
v 16 31 -12
v 16 32 -12
v -11 0 -13
v -11 31 -13
v 16 0 -13
v 16 31 -13
v -13 0 16
v -11 0 16
v 13 0 16
v 13 0 14
v 14 0 14
v 14 0 13
v 16 0 13
v -11 0 -10
v -10 0 -10
v -13 0 -11
v -12 0 -11
v -10 0 -11
v 16 0 -11
v -12 0 -12
v -11 0 -12
v -11 0 -13
v 16 0 -13
v -6 29 6
v 6 29 6
v -6 29 -6
v 6 29 -6
v -13 31 16
v -12 31 16
v 12 31 16
v 13 31 16
v 12 31 14
v 13 31 14
v 14 31 14
v 13 31 13
v 14 31 13
v 16 31 13
v 14 31 12
v 16 31 12
v -13 31 -11
v -12 31 -11
v -11 31 -11
v -12 31 -12
v -11 31 -12
v 16 31 -12
v -11 31 -13
v 16 31 -13
v -12 32 16
v -11 32 16
v 11 32 16
v 12 32 16
v 12 32 14
v 13 32 14
v 11 32 13
v 12 32 13
v 13 32 13
v 14 32 13
v 12 32 12
v 13 32 12
v 14 32 12
v 16 32 12
v 13 32 11
v 16 32 11
v -6 32 7
v 6 32 7
v -7 32 6
v -6 32 6
v 6 32 6
v 7 32 6
v -7 32 -6
v -6 32 -6
v 6 32 -6
v 7 32 -6
v -6 32 -7
v 6 32 -7
v -11 32 -10
v -10 32 -10
v -12 32 -11
v -11 32 -11
v -10 32 -11
v 16 32 -11
v -11 32 -12
v 16 32 -12

# faces
f 3/2/1 2/2/1 1/2/1
f 4/2/1 2/2/1 3/2/1
f 8/2/1 6/2/1 5/2/1
f 9/2/1 6/2/1 8/2/1
f 10/2/1 8/2/1 7/2/1
f 11/2/1 8/2/1 10/2/1
f 15/2/1 13/2/1 12/2/1
f 16/2/1 13/2/1 15/2/1
f 17/2/1 15/2/1 14/2/1
f 18/2/1 15/2/1 17/2/1
f 21/1/1 20/1/1 19/1/1
f 22/1/1 20/1/1 21/1/1
f 23/2/1 22/2/1 21/2/1
f 24/2/1 22/2/1 23/2/1
f 25/1/2 26/1/2 27/1/2
f 27/1/2 26/1/2 28/1/2
f 27/2/2 28/2/2 29/2/2
f 29/2/2 28/2/2 30/2/2
f 31/3/2 32/3/2 33/3/2
f 33/3/2 32/3/2 34/3/2
f 35/1/2 36/1/2 37/1/2
f 37/1/2 36/1/2 38/1/2
f 37/3/2 38/3/2 39/3/2
f 39/3/2 38/3/2 40/3/2
f 40/3/2 41/3/2 42/3/2
f 42/3/2 41/3/2 43/3/2
f 44/1/2 45/1/2 46/1/2
f 46/1/2 45/1/2 47/1/2
f 46/3/2 47/3/2 48/3/2
f 48/3/2 47/3/2 49/3/2
f 49/3/2 50/3/2 51/3/2
f 51/3/2 50/3/2 52/3/2
f 53/1/2 54/1/2 56/1/2
f 56/1/2 54/1/2 57/1/2
f 56/3/2 57/3/2 58/3/2
f 57/1/2 54/1/2 59/1/2
f 58/3/2 57/3/2 59/3/2
f 59/1/2 54/1/2 60/1/2
f 54/2/2 55/2/2 61/2/2
f 61/2/2 55/2/2 62/2/2
f 59/3/2 60/3/2 63/3/2
f 60/1/2 54/1/2 64/1/2
f 63/3/2 60/3/2 64/3/2
f 54/2/2 61/2/2 65/2/2
f 64/1/2 54/1/2 65/1/2
f 65/2/2 61/2/2 66/2/2
f 69/2/3 68/2/3 67/2/3
f 71/2/3 69/2/3 67/2/3
f 71/2/3 70/2/3 69/2/3
f 72/2/3 70/2/3 71/2/3
f 73/1/3 72/1/3 71/1/3
f 74/1/3 72/1/3 73/1/3
f 75/1/3 73/1/3 71/1/3
f 76/3/3 74/3/3 73/3/3
f 76/1/3 73/1/3 75/1/3
f 77/3/3 74/3/3 76/3/3
f 78/1/3 75/1/3 71/1/3
f 79/3/3 76/3/3 75/3/3
f 79/1/3 75/1/3 78/1/3
f 80/3/3 76/3/3 79/3/3
f 85/3/3 82/3/3 81/3/3
f 86/3/3 82/3/3 85/3/3
f 87/1/3 84/1/3 83/1/3
f 88/3/3 85/3/3 84/3/3
f 88/1/3 84/1/3 87/1/3
f 89/3/3 85/3/3 88/3/3
f 94/3/3 91/3/3 90/3/3
f 95/3/3 91/3/3 94/3/3
f 96/1/3 93/1/3 92/1/3
f 97/3/3 94/3/3 93/3/3
f 97/1/3 93/1/3 96/1/3
f 98/3/3 94/3/3 97/3/3
f 101/3/3 100/3/3 99/3/3
f 102/3/3 100/3/3 101/3/3
f 106/1/3 104/1/3 103/1/3
f 107/2/3 105/2/3 104/2/3
f 107/1/3 104/1/3 106/1/3
f 108/2/3 105/2/3 107/2/3
f 109/1/4 110/1/4 112/1/4
f 110/2/4 111/2/4 113/2/4
f 112/1/4 110/1/4 113/1/4
f 113/2/4 111/2/4 114/2/4
f 115/2/4 116/2/4 117/2/4
f 117/2/4 116/2/4 118/2/4
f 118/2/4 119/2/4 120/2/4
f 120/2/4 119/2/4 121/2/4
f 122/2/4 123/2/4 124/2/4
f 124/2/4 123/2/4 125/2/4
f 125/2/4 126/2/4 127/2/4
f 127/2/4 126/2/4 128/2/4
f 129/2/4 130/2/4 131/2/4
f 131/2/4 130/2/4 132/2/4
f 136/1/5 135/1/5 134/1/5
f 138/1/5 137/1/5 136/1/5
f 140/2/5 134/2/5 133/2/5
f 140/1/5 139/1/5 138/1/5
f 140/1/5 138/1/5 136/1/5
f 140/1/5 136/1/5 134/1/5
f 141/1/5 139/1/5 140/1/5
f 142/2/5 140/2/5 133/2/5
f 142/2/5 141/2/5 140/2/5
f 143/2/5 141/2/5 142/2/5
f 144/1/5 139/1/5 141/1/5
f 144/2/5 141/2/5 143/2/5
f 145/1/5 139/1/5 144/1/5
f 146/2/5 144/2/5 143/2/5
f 146/2/5 145/2/5 144/2/5
f 147/2/5 145/2/5 146/2/5
f 148/2/5 145/2/5 147/2/5
f 149/2/5 145/2/5 148/2/5
f 150/1/6 151/1/6 152/1/6
f 152/1/6 151/1/6 153/1/6
f 156/3/6 157/3/6 158/3/6
f 158/3/6 157/3/6 159/3/6
f 159/3/6 160/3/6 161/3/6
f 161/3/6 160/3/6 162/3/6
f 162/3/6 163/3/6 164/3/6
f 164/3/6 163/3/6 165/3/6
f 154/2/6 155/2/6 166/2/6
f 166/2/6 155/2/6 167/2/6
f 167/2/6 168/2/6 169/2/6
f 169/2/6 168/2/6 170/2/6
f 170/2/6 171/2/6 172/2/6
f 172/2/6 171/2/6 173/2/6
f 176/3/6 177/3/6 178/3/6
f 175/1/6 176/1/6 180/1/6
f 178/3/6 179/3/6 180/3/6
f 176/3/6 178/3/6 180/3/6
f 180/3/6 179/3/6 181/3/6
f 181/3/6 179/3/6 182/3/6
f 180/1/6 181/1/6 184/1/6
f 182/3/6 183/3/6 184/3/6
f 181/3/6 182/3/6 184/3/6
f 184/3/6 183/3/6 185/3/6
f 185/3/6 183/3/6 186/3/6
f 184/1/6 185/1/6 188/1/6
f 186/3/6 187/3/6 188/3/6
f 185/3/6 186/3/6 188/3/6
f 188/3/6 187/3/6 189/3/6
f 175/1/6 180/1/6 190/1/6
f 180/1/6 184/1/6 190/1/6
f 188/1/6 189/1/6 190/1/6
f 184/1/6 188/1/6 190/1/6
f 190/1/6 189/1/6 191/1/6
f 175/1/6 190/1/6 192/1/6
f 190/2/6 191/2/6 193/2/6
f 192/1/6 190/1/6 193/1/6
f 191/1/6 189/1/6 194/1/6
f 193/2/6 191/2/6 194/2/6
f 194/1/6 189/1/6 195/1/6
f 192/2/6 193/2/6 196/2/6
f 175/1/6 192/1/6 196/1/6
f 196/2/6 193/2/6 197/2/6
f 194/2/6 195/2/6 198/2/6
f 195/1/6 189/1/6 199/1/6
f 198/2/6 195/2/6 199/2/6
f 197/2/6 198/2/6 200/2/6
f 196/1/6 197/1/6 200/1/6
f 198/1/6 199/1/6 201/1/6
f 200/2/6 198/2/6 201/2/6
f 174/2/6 175/2/6 202/2/6
f 196/1/6 200/1/6 202/1/6
f 200/1/6 201/1/6 202/1/6
f 175/1/6 196/1/6 202/1/6
f 202/1/6 201/1/6 203/1/6
f 174/2/6 202/2/6 204/2/6
f 202/2/6 203/2/6 204/2/6
f 204/2/6 203/2/6 205/2/6
f 203/1/6 201/1/6 206/1/6
f 205/2/6 203/2/6 206/2/6
f 201/1/6 199/1/6 207/1/6
f 206/1/6 201/1/6 207/1/6
f 199/1/6 189/1/6 207/1/6
f 205/2/6 206/2/6 208/2/6
f 206/2/6 207/2/6 208/2/6
f 208/2/6 207/2/6 209/2/6
