# MagicaVoxel @ ephtracy

# material
mtllib CornerNW.mtl
usemtl palette

# normals
vn -1 0 0
vn 1 0 0
vn 0 0 1
vn 0 0 -1
vn 0 -1 0
vn 0 1 0

# texcoords
vt 0.970703 0.5
vt 0.978516 0.5
vt 0.982422 0.5

# verts
v -13 0 16
v -13 0 -11
v -13 32 16
v -13 32 -11
v -12 0 -11
v -12 0 -12
v -12 32 -11
v -12 32 -12
v -11 0 -12
v -11 0 -13
v -11 32 -12
v -11 32 -13
v 6 29 6
v 6 29 -6
v 6 31 6
v 6 31 -6
v 6 32 6
v 6 32 -6
v -6 29 6
v -6 29 -6
v -6 31 6
v -6 31 -6
v -6 32 6
v -6 32 -6
v 13 0 16
v 13 0 14
v 13 31 16
v 13 31 14
v 13 32 16
v 13 32 14
v 14 0 14
v 14 0 13
v 14 31 14
v 14 31 13
v 14 32 14
v 14 32 13
v 16 0 13
v 16 0 -11
v 16 0 -13
v 16 31 13
v 16 31 11
v 16 32 13
v 16 32 11
v 16 32 -11
v 16 32 -13
v -13 0 16
v -13 32 16
v -11 0 16
v -11 32 16
v 11 31 16
v 11 32 16
v 13 0 16
v 13 31 16
v 13 32 16
v 13 0 14
v 13 31 14
v 13 32 14
v 14 0 14
v 14 31 14
v 14 32 14
v 14 0 13
v 14 31 13
v 14 32 13
v 16 0 13
v 16 31 13
v 16 32 13
v -6 29 -6
v -6 31 -6
v -6 32 -6
v 6 29 -6
v 6 31 -6
v 6 32 -6
v -6 29 6
v -6 31 6
v -6 32 6
v 6 29 6
v 6 31 6
v 6 32 6
v -13 0 -11
v -13 32 -11
v -12 0 -11
v -12 32 -11
v -12 0 -12
v -12 32 -12
v -11 0 -12
v -11 32 -12
v -11 0 -13
v -11 32 -13
v 16 0 -13
v 16 32 -13
v -13 0 16
v -11 0 16
v 13 0 16
v 13 0 14
v 14 0 14
v 14 0 13
v 16 0 13
v -11 0 -10
v -10 0 -10
v -13 0 -11
v -12 0 -11
v -10 0 -11
v 16 0 -11
v -12 0 -12
v -11 0 -12
v -11 0 -13
v 16 0 -13
v -6 29 6
v 6 29 6
v -6 29 -6
v 6 29 -6
v -13 32 16
v -11 32 16
v 11 32 16
v 13 32 16
v 13 32 14
v 14 32 14
v 11 32 13
v 12 32 13
v 14 32 13
v 16 32 13
v 12 32 12
v 13 32 12
v 13 32 11
v 16 32 11
v -6 32 7
v 6 32 7
v -7 32 6
v -6 32 6
v 6 32 6
v 7 32 6
v -7 32 -6
v -6 32 -6
v 6 32 -6
v 7 32 -6
v -6 32 -7
v 6 32 -7
v -11 32 -10
v -10 32 -10
v -13 32 -11
v -12 32 -11
v -10 32 -11
v 16 32 -11
v -12 32 -12
v -11 32 -12
v -11 32 -13
v 16 32 -13

# faces
f 3/2/1 2/2/1 1/2/1
f 4/2/1 2/2/1 3/2/1
f 7/2/1 6/2/1 5/2/1
f 8/2/1 6/2/1 7/2/1
f 11/2/1 10/2/1 9/2/1
f 12/2/1 10/2/1 11/2/1
f 15/1/1 14/1/1 13/1/1
f 16/1/1 14/1/1 15/1/1
f 17/2/1 16/2/1 15/2/1
f 18/2/1 16/2/1 17/2/1
f 19/1/2 20/1/2 21/1/2
f 21/1/2 20/1/2 22/1/2
f 21/2/2 22/2/2 23/2/2
f 23/2/2 22/2/2 24/2/2
f 25/1/2 26/1/2 27/1/2
f 27/1/2 26/1/2 28/1/2
f 27/3/2 28/3/2 29/3/2
f 29/3/2 28/3/2 30/3/2
f 31/1/2 32/1/2 33/1/2
f 33/1/2 32/1/2 34/1/2
f 33/3/2 34/3/2 35/3/2
f 35/3/2 34/3/2 36/3/2
f 37/1/2 38/1/2 40/1/2
f 40/1/2 38/1/2 41/1/2
f 40/3/2 41/3/2 42/3/2
f 41/1/2 38/1/2 43/1/2
f 42/3/2 41/3/2 43/3/2
f 38/2/2 39/2/2 44/2/2
f 43/1/2 38/1/2 44/1/2
f 44/2/2 39/2/2 45/2/2
f 48/2/3 47/2/3 46/2/3
f 49/2/3 47/2/3 48/2/3
f 50/1/3 49/1/3 48/1/3
f 51/1/3 49/1/3 50/1/3
f 52/1/3 50/1/3 48/1/3
f 53/3/3 51/3/3 50/3/3
f 53/1/3 50/1/3 52/1/3
f 54/3/3 51/3/3 53/3/3
f 58/1/3 56/1/3 55/1/3
f 59/3/3 57/3/3 56/3/3
f 59/1/3 56/1/3 58/1/3
f 60/3/3 57/3/3 59/3/3
f 64/1/3 62/1/3 61/1/3
f 65/3/3 63/3/3 62/3/3
f 65/1/3 62/1/3 64/1/3
f 66/3/3 63/3/3 65/3/3
f 70/1/3 68/1/3 67/1/3
f 71/2/3 69/2/3 68/2/3
f 71/1/3 68/1/3 70/1/3
f 72/2/3 69/2/3 71/2/3
f 73/1/4 74/1/4 76/1/4
f 74/2/4 75/2/4 77/2/4
f 76/1/4 74/1/4 77/1/4
f 77/2/4 75/2/4 78/2/4
f 79/2/4 80/2/4 81/2/4
f 81/2/4 80/2/4 82/2/4
f 83/2/4 84/2/4 85/2/4
f 85/2/4 84/2/4 86/2/4
f 87/2/4 88/2/4 89/2/4
f 89/2/4 88/2/4 90/2/4
f 94/1/5 93/1/5 92/1/5
f 96/1/5 95/1/5 94/1/5
f 98/2/5 92/2/5 91/2/5
f 98/1/5 97/1/5 96/1/5
f 98/1/5 96/1/5 94/1/5
f 98/1/5 94/1/5 92/1/5
f 99/1/5 97/1/5 98/1/5
f 100/2/5 98/2/5 91/2/5
f 100/2/5 99/2/5 98/2/5
f 101/2/5 99/2/5 100/2/5
f 102/1/5 97/1/5 99/1/5
f 102/2/5 99/2/5 101/2/5
f 103/1/5 97/1/5 102/1/5
f 104/2/5 102/2/5 101/2/5
f 104/2/5 103/2/5 102/2/5
f 105/2/5 103/2/5 104/2/5
f 106/2/5 103/2/5 105/2/5
f 107/2/5 103/2/5 106/2/5
f 108/1/6 109/1/6 110/1/6
f 110/1/6 109/1/6 111/1/6
f 114/3/6 115/3/6 116/3/6
f 113/1/6 114/1/6 118/1/6
f 116/3/6 117/3/6 118/3/6
f 114/3/6 116/3/6 118/3/6
f 118/3/6 117/3/6 119/3/6
f 119/3/6 117/3/6 120/3/6
f 118/1/6 119/1/6 122/1/6
f 120/3/6 121/3/6 122/3/6
f 119/3/6 120/3/6 122/3/6
f 122/3/6 121/3/6 123/3/6
f 122/1/6 123/1/6 124/1/6
f 123/3/6 121/3/6 124/3/6
f 124/3/6 121/3/6 125/3/6
f 113/1/6 118/1/6 126/1/6
f 118/1/6 122/1/6 126/1/6
f 124/1/6 125/1/6 126/1/6
f 122/1/6 124/1/6 126/1/6
f 126/1/6 125/1/6 127/1/6
f 113/1/6 126/1/6 128/1/6
f 126/2/6 127/2/6 129/2/6
f 128/1/6 126/1/6 129/1/6
f 127/1/6 125/1/6 130/1/6
f 129/2/6 127/2/6 130/2/6
f 130/1/6 125/1/6 131/1/6
f 128/2/6 129/2/6 132/2/6
f 113/1/6 128/1/6 132/1/6
f 132/2/6 129/2/6 133/2/6
f 130/2/6 131/2/6 134/2/6
f 131/1/6 125/1/6 135/1/6
f 134/2/6 131/2/6 135/2/6
f 133/2/6 134/2/6 136/2/6
f 132/1/6 133/1/6 136/1/6
f 134/1/6 135/1/6 137/1/6
f 136/2/6 134/2/6 137/2/6
f 112/2/6 113/2/6 138/2/6
f 132/1/6 136/1/6 138/1/6
f 136/1/6 137/1/6 138/1/6
f 113/1/6 132/1/6 138/1/6
f 138/1/6 137/1/6 139/1/6
f 112/2/6 138/2/6 140/2/6
f 138/2/6 139/2/6 140/2/6
f 140/2/6 139/2/6 141/2/6
f 139/1/6 137/1/6 142/1/6
f 141/2/6 139/2/6 142/2/6
f 137/1/6 135/1/6 143/1/6
f 142/1/6 137/1/6 143/1/6
f 135/1/6 125/1/6 143/1/6
f 141/2/6 142/2/6 144/2/6
f 142/2/6 143/2/6 144/2/6
f 144/2/6 143/2/6 145/2/6
f 145/2/6 143/2/6 146/2/6
f 146/2/6 143/2/6 147/2/6
