# MagicaVoxel @ ephtracy

# material
mtllib 4Joint.mtl
usemtl palette

# normals
vn -1 0 0
vn 1 0 0
vn 0 0 1
vn 0 0 -1
vn 0 -1 0
vn 0 1 0

# texcoords
vt 0.970703 0.5
vt 0.978516 0.5
vt 0.982422 0.5

# verts
v -16 0 13
v -16 0 -11
v -16 0 -13
v -16 31 13
v -16 31 11
v -16 32 13
v -16 32 11
v -16 32 -11
v -16 32 -13
v -14 0 14
v -14 0 13
v -14 0 -13
v -14 0 -14
v -14 31 14
v -14 31 13
v -14 32 14
v -14 32 13
v -14 32 -13
v -14 32 -14
v -13 0 16
v -13 0 14
v -13 0 -14
v -13 0 -16
v -13 31 14
v -13 32 16
v -13 32 14
v -13 32 -14
v -13 32 -16
v 6 29 6
v 6 29 -6
v 6 31 6
v 6 31 -6
v 6 32 6
v 6 32 -6
v -6 29 6
v -6 29 -6
v -6 31 6
v -6 31 -6
v -6 32 6
v -6 32 -6
v 13 0 16
v 13 0 14
v 13 0 -14
v 13 0 -16
v 13 31 16
v 13 31 14
v 13 31 -14
v 13 31 -16
v 13 32 16
v 13 32 14
v 13 32 -14
v 13 32 -16
v 14 0 14
v 14 0 13
v 14 0 -13
v 14 0 -14
v 14 31 14
v 14 31 13
v 14 32 14
v 14 32 13
v 14 32 -13
v 14 32 -14
v 16 0 13
v 16 0 -11
v 16 0 -13
v 16 31 13
v 16 31 11
v 16 32 13
v 16 32 11
v 16 32 -11
v 16 32 -13
v -13 0 16
v -13 32 16
v -11 0 16
v -11 32 16
v 11 31 16
v 11 32 16
v 13 0 16
v 13 31 16
v 13 32 16
v -14 0 14
v -14 31 14
v -14 32 14
v -13 0 14
v -13 31 14
v -13 32 14
v 13 0 14
v 13 31 14
v 13 32 14
v 14 0 14
v 14 31 14
v 14 32 14
v -16 0 13
v -16 31 13
v -16 32 13
v -14 0 13
v -14 31 13
v -14 32 13
v 14 0 13
v 14 31 13
v 14 32 13
v 16 0 13
v 16 31 13
v 16 32 13
v -6 29 -6
v -6 31 -6
v -6 32 -6
v 6 29 -6
v 6 31 -6
v 6 32 -6
v -6 29 6
v -6 31 6
v -6 32 6
v 6 29 6
v 6 31 6
v 6 32 6
v -16 0 -13
v -16 32 -13
v -14 0 -13
v -14 32 -13
v 14 0 -13
v 14 32 -13
v 16 0 -13
v 16 32 -13
v -14 0 -14
v -14 32 -14
v -13 0 -14
v -13 32 -14
v 13 0 -14
v 13 31 -14
v 13 32 -14
v 14 0 -14
v 14 32 -14
v -13 0 -16
v -13 32 -16
v -11 0 -16
v -11 32 -16
v 11 31 -16
v 11 32 -16
v 13 0 -16
v 13 31 -16
v 13 32 -16
v -13 0 16
v -11 0 16
v 13 0 16
v -14 0 14
v -13 0 14
v 13 0 14
v 14 0 14
v -16 0 13
v -14 0 13
v -13 0 13
v -11 0 13
v 14 0 13
v 16 0 13
v -16 0 -11
v -13 0 -11
v 13 0 -11
v 16 0 -11
v -13 0 -12
v -12 0 -12
v 12 0 -12
v 13 0 -12
v -16 0 -13
v -14 0 -13
v -12 0 -13
v -11 0 -13
v 12 0 -13
v 13 0 -13
v 14 0 -13
v 16 0 -13
v -14 0 -14
v -13 0 -14
v 13 0 -14
v 14 0 -14
v -13 0 -16
v -11 0 -16
v 13 0 -16
v -6 29 6
v 6 29 6
v -6 29 -6
v 6 29 -6
v -13 32 16
v -11 32 16
v 11 32 16
v 13 32 16
v -14 32 14
v -13 32 14
v 13 32 14
v 14 32 14
v -16 32 13
v -14 32 13
v -13 32 13
v -12 32 13
v -11 32 13
v 11 32 13
v 12 32 13
v 14 32 13
v 16 32 13
v -13 32 12
v -12 32 12
v 12 32 12
v 13 32 12
v -16 32 11
v -13 32 11
v 13 32 11
v 16 32 11
v -6 32 7
v 6 32 7
v -7 32 6
v -6 32 6
v 6 32 6
v 7 32 6
v -7 32 -6
v -6 32 -6
v 6 32 -6
v 7 32 -6
v -6 32 -7
v 6 32 -7
v -16 32 -11
v -13 32 -11
v 13 32 -11
v 16 32 -11
v -13 32 -12
v -12 32 -12
v 12 32 -12
v 13 32 -12
v -16 32 -13
v -14 32 -13
v -12 32 -13
v -11 32 -13
v 11 32 -13
v 12 32 -13
v 13 32 -13
v 14 32 -13
v 16 32 -13
v -14 32 -14
v -13 32 -14
v 13 32 -14
v 14 32 -14
v -13 32 -16
v -11 32 -16
v 11 32 -16
v 13 32 -16

# faces
f 4/1/1 2/1/1 1/1/1
f 5/1/1 2/1/1 4/1/1
f 6/3/1 5/3/1 4/3/1
f 7/1/1 2/1/1 5/1/1
f 7/3/1 5/3/1 6/3/1
f 8/2/1 3/2/1 2/2/1
f 8/1/1 2/1/1 7/1/1
f 9/2/1 3/2/1 8/2/1
f 14/1/1 11/1/1 10/1/1
f 15/1/1 11/1/1 14/1/1
f 16/3/1 15/3/1 14/3/1
f 17/3/1 15/3/1 16/3/1
f 18/2/1 13/2/1 12/2/1
f 19/2/1 13/2/1 18/2/1
f 24/2/1 21/2/1 20/2/1
f 25/2/1 24/2/1 20/2/1
f 26/2/1 24/2/1 25/2/1
f 27/2/1 23/2/1 22/2/1
f 28/2/1 23/2/1 27/2/1
f 31/1/1 30/1/1 29/1/1
f 32/1/1 30/1/1 31/1/1
f 33/2/1 32/2/1 31/2/1
f 34/2/1 32/2/1 33/2/1
f 35/1/2 36/1/2 37/1/2
f 37/1/2 36/1/2 38/1/2
f 37/2/2 38/2/2 39/2/2
f 39/2/2 38/2/2 40/2/2
f 41/1/2 42/1/2 45/1/2
f 45/1/2 42/1/2 46/1/2
f 43/1/2 44/1/2 47/1/2
f 47/1/2 44/1/2 48/1/2
f 45/3/2 46/3/2 49/3/2
f 49/3/2 46/3/2 50/3/2
f 47/3/2 48/3/2 51/3/2
f 51/3/2 48/3/2 52/3/2
f 53/1/2 54/1/2 57/1/2
f 57/1/2 54/1/2 58/1/2
f 57/3/2 58/3/2 59/3/2
f 59/3/2 58/3/2 60/3/2
f 55/2/2 56/2/2 61/2/2
f 61/2/2 56/2/2 62/2/2
f 63/1/2 64/1/2 66/1/2
f 66/1/2 64/1/2 67/1/2
f 66/3/2 67/3/2 68/3/2
f 67/1/2 64/1/2 69/1/2
f 68/3/2 67/3/2 69/3/2
f 64/2/2 65/2/2 70/2/2
f 69/1/2 64/1/2 70/1/2
f 70/2/2 65/2/2 71/2/2
f 74/2/3 73/2/3 72/2/3
f 75/2/3 73/2/3 74/2/3
f 76/1/3 75/1/3 74/1/3
f 77/1/3 75/1/3 76/1/3
f 78/1/3 76/1/3 74/1/3
f 79/3/3 77/3/3 76/3/3
f 79/1/3 76/1/3 78/1/3
f 80/3/3 77/3/3 79/3/3
f 84/1/3 82/1/3 81/1/3
f 85/3/3 83/3/3 82/3/3
f 85/1/3 82/1/3 84/1/3
f 86/3/3 83/3/3 85/3/3
f 90/1/3 88/1/3 87/1/3
f 91/3/3 89/3/3 88/3/3
f 91/1/3 88/1/3 90/1/3
f 92/3/3 89/3/3 91/3/3
f 96/1/3 94/1/3 93/1/3
f 97/3/3 95/3/3 94/3/3
f 97/1/3 94/1/3 96/1/3
f 98/3/3 95/3/3 97/3/3
f 102/1/3 100/1/3 99/1/3
f 103/3/3 101/3/3 100/3/3
f 103/1/3 100/1/3 102/1/3
f 104/3/3 101/3/3 103/3/3
f 108/1/3 106/1/3 105/1/3
f 109/2/3 107/2/3 106/2/3
f 109/1/3 106/1/3 108/1/3
f 110/2/3 107/2/3 109/2/3
f 111/1/4 112/1/4 114/1/4
f 112/2/4 113/2/4 115/2/4
f 114/1/4 112/1/4 115/1/4
f 115/2/4 113/2/4 116/2/4
f 117/2/4 118/2/4 119/2/4
f 119/2/4 118/2/4 120/2/4
f 121/2/4 122/2/4 123/2/4
f 123/2/4 122/2/4 124/2/4
f 125/2/4 126/2/4 127/2/4
f 127/2/4 126/2/4 128/2/4
f 129/2/4 130/2/4 132/2/4
f 130/2/4 131/2/4 132/2/4
f 132/2/4 131/2/4 133/2/4
f 134/2/4 135/2/4 136/2/4
f 136/2/4 135/2/4 137/2/4
f 136/1/4 137/1/4 138/1/4
f 138/1/4 137/1/4 139/1/4
f 136/1/4 138/1/4 140/1/4
f 138/3/4 139/3/4 141/3/4
f 140/1/4 138/1/4 141/1/4
f 141/3/4 139/3/4 142/3/4
f 147/2/5 144/2/5 143/2/5
f 148/1/5 145/1/5 144/1/5
f 151/1/5 147/1/5 146/1/5
f 152/2/5 144/2/5 147/2/5
f 152/1/5 147/1/5 151/1/5
f 153/1/5 149/1/5 148/1/5
f 153/2/5 144/2/5 152/2/5
f 153/1/5 148/1/5 144/1/5
f 154/1/5 149/1/5 153/1/5
f 156/1/5 152/1/5 151/1/5
f 156/1/5 155/1/5 154/1/5
f 156/1/5 154/1/5 153/1/5
f 156/1/5 153/1/5 152/1/5
f 156/1/5 151/1/5 150/1/5
f 157/1/5 155/1/5 156/1/5
f 158/1/5 155/1/5 157/1/5
f 159/1/5 155/1/5 158/1/5
f 160/2/5 157/2/5 156/2/5
f 160/1/5 158/1/5 157/1/5
f 161/1/5 158/1/5 160/1/5
f 162/1/5 158/1/5 161/1/5
f 163/2/5 159/2/5 158/2/5
f 163/1/5 158/1/5 162/1/5
f 164/2/5 160/2/5 156/2/5
f 164/2/5 161/2/5 160/2/5
f 165/2/5 161/2/5 164/2/5
f 166/1/5 162/1/5 161/1/5
f 166/2/5 161/2/5 165/2/5
f 167/1/5 162/1/5 166/1/5
f 168/2/5 163/2/5 162/2/5
f 168/1/5 162/1/5 167/1/5
f 169/2/5 159/2/5 163/2/5
f 169/2/5 163/2/5 168/2/5
f 170/2/5 159/2/5 169/2/5
f 171/2/5 159/2/5 170/2/5
f 172/2/5 167/2/5 166/2/5
f 172/2/5 166/2/5 165/2/5
f 173/2/5 167/2/5 172/2/5
f 174/1/5 168/1/5 167/1/5
f 174/2/5 170/2/5 169/2/5
f 174/1/5 169/1/5 168/1/5
f 175/2/5 170/2/5 174/2/5
f 176/2/5 167/2/5 173/2/5
f 177/1/5 174/1/5 167/1/5
f 177/2/5 167/2/5 176/2/5
f 178/1/5 174/1/5 177/1/5
f 179/1/6 180/1/6 181/1/6
f 181/1/6 180/1/6 182/1/6
f 183/2/6 184/2/6 188/2/6
f 185/3/6 186/3/6 189/3/6
f 187/3/6 188/3/6 192/3/6
f 188/2/6 184/2/6 193/2/6
f 192/3/6 188/3/6 193/3/6
f 193/2/6 184/2/6 194/2/6
f 184/1/6 185/1/6 195/1/6
f 194/2/6 184/2/6 195/2/6
f 189/3/6 190/3/6 196/3/6
f 195/1/6 185/1/6 196/1/6
f 185/3/6 189/3/6 196/3/6
f 196/3/6 190/3/6 197/3/6
f 197/3/6 190/3/6 198/3/6
f 193/3/6 194/3/6 200/3/6
f 191/3/6 192/3/6 200/3/6
f 192/3/6 193/3/6 200/3/6
f 194/1/6 195/1/6 201/1/6
f 200/3/6 194/3/6 201/3/6
f 196/1/6 197/1/6 201/1/6
f 195/1/6 196/1/6 201/1/6
f 198/3/6 199/3/6 202/3/6
f 201/1/6 197/1/6 202/1/6
f 197/3/6 198/3/6 202/3/6
f 202/3/6 199/3/6 203/3/6
f 191/3/6 200/3/6 204/3/6
f 200/1/6 201/1/6 205/1/6
f 204/3/6 200/3/6 205/3/6
f 201/1/6 202/1/6 205/1/6
f 202/1/6 203/1/6 205/1/6
f 203/3/6 199/3/6 206/3/6
f 205/1/6 203/1/6 206/1/6
f 206/3/6 199/3/6 207/3/6
f 204/1/6 205/1/6 208/1/6
f 205/1/6 206/1/6 208/1/6
f 206/1/6 207/1/6 208/1/6
f 208/1/6 207/1/6 209/1/6
f 204/1/6 208/1/6 210/1/6
f 208/2/6 209/2/6 211/2/6
f 210/1/6 208/1/6 211/1/6
f 209/1/6 207/1/6 212/1/6
f 211/2/6 209/2/6 212/2/6
f 212/1/6 207/1/6 213/1/6
f 210/2/6 211/2/6 214/2/6
f 204/1/6 210/1/6 214/1/6
f 214/2/6 211/2/6 215/2/6
f 212/2/6 213/2/6 216/2/6
f 213/1/6 207/1/6 217/1/6
f 216/2/6 213/2/6 217/2/6
f 215/2/6 216/2/6 218/2/6
f 214/1/6 215/1/6 218/1/6
f 216/1/6 217/1/6 219/1/6
f 218/2/6 216/2/6 219/2/6
f 214/1/6 218/1/6 220/1/6
f 204/1/6 214/1/6 220/1/6
f 218/1/6 219/1/6 220/1/6
f 220/1/6 219/1/6 221/1/6
f 217/1/6 207/1/6 222/1/6
f 221/1/6 219/1/6 222/1/6
f 219/1/6 217/1/6 222/1/6
f 222/1/6 207/1/6 223/1/6
f 220/2/6 221/2/6 224/2/6
f 221/1/6 222/1/6 224/1/6
f 224/1/6 222/1/6 225/1/6
f 225/1/6 222/1/6 226/1/6
f 222/2/6 223/2/6 227/2/6
f 226/1/6 222/1/6 227/1/6
f 220/2/6 224/2/6 228/2/6
f 224/2/6 225/2/6 228/2/6
f 228/2/6 225/2/6 229/2/6
f 225/1/6 226/1/6 230/1/6
f 229/2/6 225/2/6 230/2/6
f 230/1/6 226/1/6 231/1/6
f 231/1/6 226/1/6 232/1/6
f 226/2/6 227/2/6 233/2/6
f 232/1/6 226/1/6 233/1/6
f 227/2/6 223/2/6 234/2/6
f 233/2/6 227/2/6 234/2/6
f 234/2/6 223/2/6 235/2/6
f 235/2/6 223/2/6 236/2/6
f 229/2/6 230/2/6 237/2/6
f 230/2/6 231/2/6 237/2/6
f 237/2/6 231/2/6 238/2/6
f 232/3/6 233/3/6 239/3/6
f 234/2/6 235/2/6 239/2/6
f 233/3/6 234/3/6 239/3/6
f 239/2/6 235/2/6 240/2/6
f 238/2/6 231/2/6 241/2/6
f 231/1/6 232/1/6 242/1/6
f 241/2/6 231/2/6 242/2/6
f 232/3/6 239/3/6 243/3/6
f 242/1/6 232/1/6 243/1/6
f 243/3/6 239/3/6 244/3/6
