# MagicaVoxel @ ephtracy

# material
mtllib 4Joint.mtl
usemtl palette

# normals
vn -1 0 0
vn 1 0 0
vn 0 0 1
vn 0 0 -1
vn 0 -1 0
vn 0 1 0

# texcoords
vt 0.970703 0.5
vt 0.978516 0.5
vt 0.982422 0.5

# verts
v -16 0 13
v -16 0 -11
v -16 0 -13
v -16 30 13
v -16 30 12
v -16 31 13
v -16 31 12
v -16 31 11
v -16 31 -12
v -16 31 -13
v -16 32 12
v -16 32 11
v -16 32 -11
v -16 32 -12
v -14 0 14
v -14 0 13
v -14 0 -13
v -14 0 -14
v -14 30 14
v -14 30 13
v -14 31 14
v -14 31 13
v -14 31 12
v -14 31 -12
v -14 31 -13
v -14 31 -14
v -14 32 13
v -14 32 12
v -14 32 -12
v -14 32 -13
v -13 0 16
v -13 0 14
v -13 0 -14
v -13 0 -16
v -13 30 14
v -13 31 16
v -13 31 14
v -13 31 13
v -13 31 -13
v -13 31 -14
v -13 31 -16
v -13 32 14
v -13 32 13
v -13 32 -13
v -13 32 -14
v -12 31 16
v -12 31 14
v -12 31 -14
v -12 31 -16
v -12 32 16
v -12 32 14
v -12 32 -14
v -12 32 -16
v 6 29 6
v 6 29 -6
v 6 31 6
v 6 31 -6
v 6 32 6
v 6 32 -6
v -6 29 6
v -6 29 -6
v -6 31 6
v -6 31 -6
v -6 32 6
v -6 32 -6
v 12 31 16
v 12 31 14
v 12 31 -14
v 12 31 -16
v 12 32 16
v 12 32 14
v 12 32 -14
v 12 32 -16
v 13 0 16
v 13 0 14
v 13 0 -14
v 13 0 -16
v 13 30 16
v 13 30 14
v 13 30 -14
v 13 30 -16
v 13 31 16
v 13 31 14
v 13 31 13
v 13 31 -13
v 13 31 -14
v 13 31 -16
v 13 32 14
v 13 32 13
v 13 32 -13
v 13 32 -14
v 14 0 14
v 14 0 13
v 14 0 -13
v 14 0 -14
v 14 30 14
v 14 30 13
v 14 31 14
v 14 31 13
v 14 31 12
v 14 31 -12
v 14 31 -13
v 14 31 -14
v 14 32 13
v 14 32 12
v 14 32 -12
v 14 32 -13
v 16 0 13
v 16 0 -11
v 16 0 -13
v 16 30 13
v 16 30 12
v 16 31 13
v 16 31 12
v 16 31 11
v 16 31 -12
v 16 31 -13
v 16 32 12
v 16 32 11
v 16 32 -11
v 16 32 -12
v -13 0 16
v -13 31 16
v -12 31 16
v -12 32 16
v -11 0 16
v -11 32 16
v 11 31 16
v 11 32 16
v 12 30 16
v 12 31 16
v 12 32 16
v 13 0 16
v 13 30 16
v 13 31 16
v -14 0 14
v -14 30 14
v -14 31 14
v -13 0 14
v -13 30 14
v -13 31 14
v -13 32 14
v -12 31 14
v -12 32 14
v 12 31 14
v 12 32 14
v 13 0 14
v 13 30 14
v 13 31 14
v 13 32 14
v 14 0 14
v 14 30 14
v 14 31 14
v -16 0 13
v -16 30 13
v -16 31 13
v -14 0 13
v -14 30 13
v -14 31 13
v -14 32 13
v -13 31 13
v -13 32 13
v 13 31 13
v 13 32 13
v 14 0 13
v 14 30 13
v 14 31 13
v 14 32 13
v 16 0 13
v 16 30 13
v 16 31 13
v -16 31 12
v -16 32 12
v -14 31 12
v -14 32 12
v 14 31 12
v 14 32 12
v 16 31 12
v 16 32 12
v -6 29 -6
v -6 31 -6
v -6 32 -6
v 6 29 -6
v 6 31 -6
v 6 32 -6
v -6 29 6
v -6 31 6
v -6 32 6
v 6 29 6
v 6 31 6
v 6 32 6
v -16 31 -12
v -16 32 -12
v -14 31 -12
v -14 32 -12
v 14 31 -12
v 14 32 -12
v 16 31 -12
v 16 32 -12
v -16 0 -13
v -16 31 -13
v -14 0 -13
v -14 31 -13
v -14 32 -13
v -13 31 -13
v -13 32 -13
v 13 31 -13
v 13 32 -13
v 14 0 -13
v 14 31 -13
v 14 32 -13
v 16 0 -13
v 16 31 -13
v -14 0 -14
v -14 31 -14
v -13 0 -14
v -13 31 -14
v -13 32 -14
v -12 31 -14
v -12 32 -14
v 12 31 -14
v 12 32 -14
v 13 0 -14
v 13 30 -14
v 13 31 -14
v 13 32 -14
v 14 0 -14
v 14 31 -14
v -13 0 -16
v -13 31 -16
v -12 31 -16
v -12 32 -16
v -11 0 -16
v -11 32 -16
v 11 31 -16
v 11 32 -16
v 12 30 -16
v 12 31 -16
v 12 32 -16
v 13 0 -16
v 13 30 -16
v 13 31 -16
v -13 0 16
v -11 0 16
v 13 0 16
v -14 0 14
v -13 0 14
v 13 0 14
v 14 0 14
v -16 0 13
v -14 0 13
v -13 0 13
v -11 0 13
v 14 0 13
v 16 0 13
v -16 0 -11
v -13 0 -11
v 13 0 -11
v 16 0 -11
v -13 0 -12
v -12 0 -12
v 12 0 -12
v 13 0 -12
v -16 0 -13
v -14 0 -13
v -12 0 -13
v -11 0 -13
v 12 0 -13
v 13 0 -13
v 14 0 -13
v 16 0 -13
v -14 0 -14
v -13 0 -14
v 13 0 -14
v 14 0 -14
v -13 0 -16
v -11 0 -16
v 13 0 -16
v -6 29 6
v 6 29 6
v -6 29 -6
v 6 29 -6
v -13 31 16
v -12 31 16
v 12 31 16
v 13 31 16
v -14 31 14
v -13 31 14
v -12 31 14
v 12 31 14
v 13 31 14
v 14 31 14
v -16 31 13
v -14 31 13
v -13 31 13
v 13 31 13
v 14 31 13
v 16 31 13
v -16 31 12
v -14 31 12
v 14 31 12
v 16 31 12
v -16 31 -12
v -14 31 -12
v 14 31 -12
v 16 31 -12
v -16 31 -13
v -14 31 -13
v -13 31 -13
v 13 31 -13
v 14 31 -13
v 16 31 -13
v -14 31 -14
v -13 31 -14
v -12 31 -14
v 12 31 -14
v 13 31 -14
v 14 31 -14
v -13 31 -16
v -12 31 -16
v 12 31 -16
v 13 31 -16
v -12 32 16
v -11 32 16
v 11 32 16
v 12 32 16
v -13 32 14
v -12 32 14
v 12 32 14
v 13 32 14
v -14 32 13
v -13 32 13
v -12 32 13
v -11 32 13
v 11 32 13
v 12 32 13
v 13 32 13
v 14 32 13
v -16 32 12
v -14 32 12
v -13 32 12
v -12 32 12
v 12 32 12
v 13 32 12
v 14 32 12
v 16 32 12
v -16 32 11
v -13 32 11
v 13 32 11
v 16 32 11
v -6 32 7
v 6 32 7
v -7 32 6
v -6 32 6
v 6 32 6
v 7 32 6
v -7 32 -6
v -6 32 -6
v 6 32 -6
v 7 32 -6
v -6 32 -7
v 6 32 -7
v -16 32 -11
v -13 32 -11
v 13 32 -11
v 16 32 -11
v -16 32 -12
v -14 32 -12
v -13 32 -12
v -12 32 -12
v 12 32 -12
v 13 32 -12
v 14 32 -12
v 16 32 -12
v -14 32 -13
v -13 32 -13
v -12 32 -13
v -11 32 -13
v 11 32 -13
v 12 32 -13
v 13 32 -13
v 14 32 -13
v -13 32 -14
v -12 32 -14
v 12 32 -14
v 13 32 -14
v -12 32 -16
v -11 32 -16
v 11 32 -16
v 12 32 -16

# faces
f 4/1/1 2/1/1 1/1/1
f 5/1/1 2/1/1 4/1/1
f 6/3/1 5/3/1 4/3/1
f 7/1/1 2/1/1 5/1/1
f 7/3/1 5/3/1 6/3/1
f 8/1/1 2/1/1 7/1/1
f 9/2/1 3/2/1 2/2/1
f 10/2/1 3/2/1 9/2/1
f 11/3/1 8/3/1 7/3/1
f 12/1/1 2/1/1 8/1/1
f 12/3/1 8/3/1 11/3/1
f 13/2/1 9/2/1 2/2/1
f 13/1/1 2/1/1 12/1/1
f 14/2/1 9/2/1 13/2/1
f 19/1/1 16/1/1 15/1/1
f 20/1/1 16/1/1 19/1/1
f 21/3/1 20/3/1 19/3/1
f 22/3/1 20/3/1 21/3/1
f 25/2/1 18/2/1 17/2/1
f 26/2/1 18/2/1 25/2/1
f 27/3/1 23/3/1 22/3/1
f 28/3/1 23/3/1 27/3/1
f 29/2/1 25/2/1 24/2/1
f 30/2/1 25/2/1 29/2/1
f 35/2/1 32/2/1 31/2/1
f 36/2/1 35/2/1 31/2/1
f 37/2/1 35/2/1 36/2/1
f 40/2/1 34/2/1 33/2/1
f 41/2/1 34/2/1 40/2/1
f 42/2/1 38/2/1 37/2/1
f 43/2/1 38/2/1 42/2/1
f 44/2/1 40/2/1 39/2/1
f 45/2/1 40/2/1 44/2/1
f 50/2/1 47/2/1 46/2/1
f 51/2/1 47/2/1 50/2/1
f 52/2/1 49/2/1 48/2/1
f 53/2/1 49/2/1 52/2/1
f 56/1/1 55/1/1 54/1/1
f 57/1/1 55/1/1 56/1/1
f 58/2/1 57/2/1 56/2/1
f 59/2/1 57/2/1 58/2/1
f 60/1/2 61/1/2 62/1/2
f 62/1/2 61/1/2 63/1/2
f 62/2/2 63/2/2 64/2/2
f 64/2/2 63/2/2 65/2/2
f 66/3/2 67/3/2 70/3/2
f 70/3/2 67/3/2 71/3/2
f 68/3/2 69/3/2 72/3/2
f 72/3/2 69/3/2 73/3/2
f 74/1/2 75/1/2 78/1/2
f 78/1/2 75/1/2 79/1/2
f 76/1/2 77/1/2 80/1/2
f 80/1/2 77/1/2 81/1/2
f 78/3/2 79/3/2 82/3/2
f 82/3/2 79/3/2 83/3/2
f 80/3/2 81/3/2 86/3/2
f 86/3/2 81/3/2 87/3/2
f 83/3/2 84/3/2 88/3/2
f 88/3/2 84/3/2 89/3/2
f 85/3/2 86/3/2 90/3/2
f 90/3/2 86/3/2 91/3/2
f 92/1/2 93/1/2 96/1/2
f 96/1/2 93/1/2 97/1/2
f 96/3/2 97/3/2 98/3/2
f 98/3/2 97/3/2 99/3/2
f 94/2/2 95/2/2 102/2/2
f 102/2/2 95/2/2 103/2/2
f 99/3/2 100/3/2 104/3/2
f 104/3/2 100/3/2 105/3/2
f 101/2/2 102/2/2 106/2/2
f 106/2/2 102/2/2 107/2/2
f 108/1/2 109/1/2 111/1/2
f 111/1/2 109/1/2 112/1/2
f 111/3/2 112/3/2 113/3/2
f 112/1/2 109/1/2 114/1/2
f 113/3/2 112/3/2 114/3/2
f 114/1/2 109/1/2 115/1/2
f 109/2/2 110/2/2 116/2/2
f 116/2/2 110/2/2 117/2/2
f 114/3/2 115/3/2 118/3/2
f 115/1/2 109/1/2 119/1/2
f 118/3/2 115/3/2 119/3/2
f 109/2/2 116/2/2 120/2/2
f 119/1/2 109/1/2 120/1/2
f 120/2/2 116/2/2 121/2/2
f 124/2/3 123/2/3 122/2/3
f 126/2/3 124/2/3 122/2/3
f 126/2/3 125/2/3 124/2/3
f 127/2/3 125/2/3 126/2/3
f 128/1/3 127/1/3 126/1/3
f 129/1/3 127/1/3 128/1/3
f 130/1/3 128/1/3 126/1/3
f 131/3/3 129/3/3 128/3/3
f 131/1/3 128/1/3 130/1/3
f 132/3/3 129/3/3 131/3/3
f 133/1/3 130/1/3 126/1/3
f 134/3/3 131/3/3 130/3/3
f 134/1/3 130/1/3 133/1/3
f 135/3/3 131/3/3 134/3/3
f 139/1/3 137/1/3 136/1/3
f 140/3/3 138/3/3 137/3/3
f 140/1/3 137/1/3 139/1/3
f 141/3/3 138/3/3 140/3/3
f 143/2/3 142/2/3 141/2/3
f 144/2/3 142/2/3 143/2/3
f 149/3/3 146/3/3 145/3/3
f 150/3/3 146/3/3 149/3/3
f 151/1/3 148/1/3 147/1/3
f 152/3/3 149/3/3 148/3/3
f 152/1/3 148/1/3 151/1/3
f 153/3/3 149/3/3 152/3/3
f 157/1/3 155/1/3 154/1/3
f 158/3/3 156/3/3 155/3/3
f 158/1/3 155/1/3 157/1/3
f 159/3/3 156/3/3 158/3/3
f 161/3/3 160/3/3 159/3/3
f 162/3/3 160/3/3 161/3/3
f 167/3/3 164/3/3 163/3/3
f 168/3/3 164/3/3 167/3/3
f 169/1/3 166/1/3 165/1/3
f 170/3/3 167/3/3 166/3/3
f 170/1/3 166/1/3 169/1/3
f 171/3/3 167/3/3 170/3/3
f 174/3/3 173/3/3 172/3/3
f 175/3/3 173/3/3 174/3/3
f 178/3/3 177/3/3 176/3/3
f 179/3/3 177/3/3 178/3/3
f 183/1/3 181/1/3 180/1/3
f 184/2/3 182/2/3 181/2/3
f 184/1/3 181/1/3 183/1/3
f 185/2/3 182/2/3 184/2/3
f 186/1/4 187/1/4 189/1/4
f 187/2/4 188/2/4 190/2/4
f 189/1/4 187/1/4 190/1/4
f 190/2/4 188/2/4 191/2/4
f 192/2/4 193/2/4 194/2/4
f 194/2/4 193/2/4 195/2/4
f 196/2/4 197/2/4 198/2/4
f 198/2/4 197/2/4 199/2/4
f 200/2/4 201/2/4 202/2/4
f 202/2/4 201/2/4 203/2/4
f 203/2/4 204/2/4 205/2/4
f 205/2/4 204/2/4 206/2/4
f 207/2/4 208/2/4 210/2/4
f 210/2/4 208/2/4 211/2/4
f 209/2/4 210/2/4 212/2/4
f 212/2/4 210/2/4 213/2/4
f 214/2/4 215/2/4 216/2/4
f 216/2/4 215/2/4 217/2/4
f 217/2/4 218/2/4 219/2/4
f 219/2/4 218/2/4 220/2/4
f 221/3/4 222/3/4 225/3/4
f 225/3/4 222/3/4 226/3/4
f 223/2/4 224/2/4 227/2/4
f 224/2/4 225/2/4 227/2/4
f 227/2/4 225/2/4 228/2/4
f 229/2/4 230/2/4 231/2/4
f 229/2/4 231/2/4 233/2/4
f 231/2/4 232/2/4 233/2/4
f 233/2/4 232/2/4 234/2/4
f 233/1/4 234/1/4 235/1/4
f 235/1/4 234/1/4 236/1/4
f 233/1/4 235/1/4 237/1/4
f 235/3/4 236/3/4 238/3/4
f 237/1/4 235/1/4 238/1/4
f 238/3/4 236/3/4 239/3/4
f 233/1/4 237/1/4 240/1/4
f 237/3/4 238/3/4 241/3/4
f 240/1/4 237/1/4 241/1/4
f 241/3/4 238/3/4 242/3/4
f 247/2/5 244/2/5 243/2/5
f 248/1/5 245/1/5 244/1/5
f 251/1/5 247/1/5 246/1/5
f 252/2/5 244/2/5 247/2/5
f 252/1/5 247/1/5 251/1/5
f 253/1/5 249/1/5 248/1/5
f 253/2/5 244/2/5 252/2/5
f 253/1/5 248/1/5 244/1/5
f 254/1/5 249/1/5 253/1/5
f 256/1/5 252/1/5 251/1/5
f 256/1/5 255/1/5 254/1/5
f 256/1/5 254/1/5 253/1/5
f 256/1/5 253/1/5 252/1/5
f 256/1/5 251/1/5 250/1/5
f 257/1/5 255/1/5 256/1/5
f 258/1/5 255/1/5 257/1/5
f 259/1/5 255/1/5 258/1/5
f 260/2/5 257/2/5 256/2/5
f 260/1/5 258/1/5 257/1/5
f 261/1/5 258/1/5 260/1/5
f 262/1/5 258/1/5 261/1/5
f 263/2/5 259/2/5 258/2/5
f 263/1/5 258/1/5 262/1/5
f 264/2/5 260/2/5 256/2/5
f 264/2/5 261/2/5 260/2/5
f 265/2/5 261/2/5 264/2/5
f 266/1/5 262/1/5 261/1/5
f 266/2/5 261/2/5 265/2/5
f 267/1/5 262/1/5 266/1/5
f 268/2/5 263/2/5 262/2/5
f 268/1/5 262/1/5 267/1/5
f 269/2/5 259/2/5 263/2/5
f 269/2/5 263/2/5 268/2/5
f 270/2/5 259/2/5 269/2/5
f 271/2/5 259/2/5 270/2/5
f 272/2/5 267/2/5 266/2/5
f 272/2/5 266/2/5 265/2/5
f 273/2/5 267/2/5 272/2/5
f 274/1/5 268/1/5 267/1/5
f 274/2/5 270/2/5 269/2/5
f 274/1/5 269/1/5 268/1/5
f 275/2/5 270/2/5 274/2/5
f 276/2/5 267/2/5 273/2/5
f 277/1/5 274/1/5 267/1/5
f 277/2/5 267/2/5 276/2/5
f 278/1/5 274/1/5 277/1/5
f 279/1/6 280/1/6 281/1/6
f 281/1/6 280/1/6 282/1/6
f 283/2/6 284/2/6 288/2/6
f 288/2/6 284/2/6 289/2/6
f 285/3/6 286/3/6 290/3/6
f 290/3/6 286/3/6 291/3/6
f 287/3/6 288/3/6 294/3/6
f 294/3/6 288/3/6 295/3/6
f 291/3/6 292/3/6 296/3/6
f 296/3/6 292/3/6 297/3/6
f 293/3/6 294/3/6 299/3/6
f 299/3/6 294/3/6 300/3/6
f 297/3/6 298/3/6 301/3/6
f 301/3/6 298/3/6 302/3/6
f 303/2/6 304/2/6 307/2/6
f 307/2/6 304/2/6 308/2/6
f 305/2/6 306/2/6 311/2/6
f 311/2/6 306/2/6 312/2/6
f 308/2/6 309/2/6 313/2/6
f 313/2/6 309/2/6 314/2/6
f 310/2/6 311/2/6 317/2/6
f 317/2/6 311/2/6 318/2/6
f 314/2/6 315/2/6 319/2/6
f 319/2/6 315/2/6 320/2/6
f 316/3/6 317/3/6 321/3/6
f 321/3/6 317/3/6 322/3/6
f 323/2/6 324/2/6 328/2/6
f 325/3/6 326/3/6 329/3/6
f 327/2/6 328/2/6 332/2/6
f 328/2/6 324/2/6 333/2/6
f 332/2/6 328/2/6 333/2/6
f 324/1/6 325/1/6 334/1/6
f 333/2/6 324/2/6 334/2/6
f 329/3/6 330/3/6 335/3/6
f 334/1/6 325/1/6 335/1/6
f 325/3/6 329/3/6 335/3/6
f 335/3/6 330/3/6 336/3/6
f 336/3/6 330/3/6 337/3/6
f 332/3/6 333/3/6 340/3/6
f 331/3/6 332/3/6 340/3/6
f 340/3/6 333/3/6 341/3/6
f 333/1/6 334/1/6 342/1/6
f 341/3/6 333/3/6 342/3/6
f 334/1/6 335/1/6 342/1/6
f 335/1/6 336/1/6 342/1/6
f 337/3/6 338/3/6 343/3/6
f 342/1/6 336/1/6 343/1/6
f 336/3/6 337/3/6 343/3/6
f 343/3/6 338/3/6 344/3/6
f 344/3/6 338/3/6 345/3/6
f 340/3/6 341/3/6 347/3/6
f 339/3/6 340/3/6 347/3/6
f 341/1/6 342/1/6 348/1/6
f 347/3/6 341/3/6 348/3/6
f 342/1/6 343/1/6 348/1/6
f 343/1/6 344/1/6 348/1/6
f 345/3/6 346/3/6 349/3/6
f 348/1/6 344/1/6 349/1/6
f 344/3/6 345/3/6 349/3/6
f 349/3/6 346/3/6 350/3/6
f 347/1/6 348/1/6 351/1/6
f 348/1/6 349/1/6 351/1/6
f 349/1/6 350/1/6 351/1/6
f 351/1/6 350/1/6 352/1/6
f 347/1/6 351/1/6 353/1/6
f 351/2/6 352/2/6 354/2/6
f 353/1/6 351/1/6 354/1/6
f 352/1/6 350/1/6 355/1/6
f 354/2/6 352/2/6 355/2/6
f 355/1/6 350/1/6 356/1/6
f 353/2/6 354/2/6 357/2/6
f 347/1/6 353/1/6 357/1/6
f 357/2/6 354/2/6 358/2/6
f 355/2/6 356/2/6 359/2/6
f 356/1/6 350/1/6 360/1/6
f 359/2/6 356/2/6 360/2/6
f 358/2/6 359/2/6 361/2/6
f 357/1/6 358/1/6 361/1/6
f 359/1/6 360/1/6 362/1/6
f 361/2/6 359/2/6 362/2/6
f 357/1/6 361/1/6 363/1/6
f 347/1/6 357/1/6 363/1/6
f 361/1/6 362/1/6 363/1/6
f 363/1/6 362/1/6 364/1/6
f 360/1/6 350/1/6 365/1/6
f 364/1/6 362/1/6 365/1/6
f 362/1/6 360/1/6 365/1/6
f 365/1/6 350/1/6 366/1/6
f 363/2/6 364/2/6 367/2/6
f 367/2/6 364/2/6 368/2/6
f 364/1/6 365/1/6 369/1/6
f 368/2/6 364/2/6 369/2/6
f 369/1/6 365/1/6 370/1/6
f 370/1/6 365/1/6 371/1/6
f 365/2/6 366/2/6 372/2/6
f 371/1/6 365/1/6 372/1/6
f 372/2/6 366/2/6 373/2/6
f 373/2/6 366/2/6 374/2/6
f 368/2/6 369/2/6 375/2/6
f 369/2/6 370/2/6 375/2/6
f 375/2/6 370/2/6 376/2/6
f 370/1/6 371/1/6 377/1/6
f 376/2/6 370/2/6 377/2/6
f 377/1/6 371/1/6 378/1/6
f 378/1/6 371/1/6 379/1/6
f 371/3/6 372/3/6 380/3/6
f 379/1/6 371/1/6 380/1/6
f 372/2/6 373/2/6 381/2/6
f 380/3/6 372/3/6 381/3/6
f 381/2/6 373/2/6 382/2/6
f 376/2/6 377/2/6 383/2/6
f 377/2/6 378/2/6 383/2/6
f 383/2/6 378/2/6 384/2/6
f 379/3/6 380/3/6 385/3/6
f 380/3/6 381/3/6 385/3/6
f 385/3/6 381/3/6 386/3/6
f 384/2/6 378/2/6 387/2/6
f 378/1/6 379/1/6 388/1/6
f 387/2/6 378/2/6 388/2/6
f 379/3/6 385/3/6 389/3/6
f 388/1/6 379/1/6 389/1/6
f 389/3/6 385/3/6 390/3/6
