# MagicaVoxel @ ephtracy

# material
mtllib Wall1.mtl
usemtl palette

# normals
vn -1 0 0
vn 1 0 0
vn 0 0 1
vn 0 0 -1
vn 0 -1 0
vn 0 1 0

# texcoords
vt 0.970703 0.5
vt 0.978516 0.5
vt 0.982422 0.5

# verts
v -16 0 13
v -16 0 -11
v -16 0 -13
v -16 30 13
v -16 30 12
v -16 31 13
v -16 31 12
v -16 31 11
v -16 31 -12
v -16 31 -13
v -16 32 12
v -16 32 11
v -16 32 -11
v -16 32 -12
v 6 29 6
v 6 29 -6
v 6 31 6
v 6 31 -6
v 6 32 6
v 6 32 -6
v -6 29 6
v -6 29 -6
v -6 31 6
v -6 31 -6
v -6 32 6
v -6 32 -6
v 16 0 13
v 16 0 -11
v 16 0 -13
v 16 30 13
v 16 30 12
v 16 31 13
v 16 31 12
v 16 31 11
v 16 31 -12
v 16 31 -13
v 16 32 12
v 16 32 11
v 16 32 -11
v 16 32 -12
v -16 0 13
v -16 30 13
v -16 31 13
v 16 0 13
v 16 30 13
v 16 31 13
v -16 31 12
v -16 32 12
v 16 31 12
v 16 32 12
v -6 29 -6
v -6 31 -6
v -6 32 -6
v 6 29 -6
v 6 31 -6
v 6 32 -6
v -6 29 6
v -6 31 6
v -6 32 6
v 6 29 6
v 6 31 6
v 6 32 6
v -16 31 -12
v -16 32 -12
v 16 31 -12
v 16 32 -12
v -16 0 -13
v -16 31 -13
v 16 0 -13
v 16 31 -13
v -16 0 13
v 16 0 13
v -16 0 -11
v 16 0 -11
v -16 0 -13
v 16 0 -13
v -6 29 6
v 6 29 6
v -6 29 -6
v 6 29 -6
v -16 31 13
v 16 31 13
v -16 31 12
v 16 31 12
v -16 31 -12
v 16 31 -12
v -16 31 -13
v 16 31 -13
v -16 32 12
v 16 32 12
v -16 32 11
v 16 32 11
v -6 32 7
v 6 32 7
v -7 32 6
v -6 32 6
v 6 32 6
v 7 32 6
v -7 32 -6
v -6 32 -6
v 6 32 -6
v 7 32 -6
v -6 32 -7
v 6 32 -7
v -16 32 -11
v 16 32 -11
v -16 32 -12
v 16 32 -12

# faces
f 4/1/1 2/1/1 1/1/1
f 5/1/1 2/1/1 4/1/1
f 6/3/1 5/3/1 4/3/1
f 7/1/1 2/1/1 5/1/1
f 7/3/1 5/3/1 6/3/1
f 8/1/1 2/1/1 7/1/1
f 9/2/1 3/2/1 2/2/1
f 10/2/1 3/2/1 9/2/1
f 11/3/1 8/3/1 7/3/1
f 12/1/1 2/1/1 8/1/1
f 12/3/1 8/3/1 11/3/1
f 13/2/1 9/2/1 2/2/1
f 13/1/1 2/1/1 12/1/1
f 14/2/1 9/2/1 13/2/1
f 17/1/1 16/1/1 15/1/1
f 18/1/1 16/1/1 17/1/1
f 19/2/1 18/2/1 17/2/1
f 20/2/1 18/2/1 19/2/1
f 21/1/2 22/1/2 23/1/2
f 23/1/2 22/1/2 24/1/2
f 23/2/2 24/2/2 25/2/2
f 25/2/2 24/2/2 26/2/2
f 27/1/2 28/1/2 30/1/2
f 30/1/2 28/1/2 31/1/2
f 30/3/2 31/3/2 32/3/2
f 31/1/2 28/1/2 33/1/2
f 32/3/2 31/3/2 33/3/2
f 33/1/2 28/1/2 34/1/2
f 28/2/2 29/2/2 35/2/2
f 35/2/2 29/2/2 36/2/2
f 33/3/2 34/3/2 37/3/2
f 34/1/2 28/1/2 38/1/2
f 37/3/2 34/3/2 38/3/2
f 28/2/2 35/2/2 39/2/2
f 38/1/2 28/1/2 39/1/2
f 39/2/2 35/2/2 40/2/2
f 44/1/3 42/1/3 41/1/3
f 45/3/3 43/3/3 42/3/3
f 45/1/3 42/1/3 44/1/3
f 46/3/3 43/3/3 45/3/3
f 49/3/3 48/3/3 47/3/3
f 50/3/3 48/3/3 49/3/3
f 54/1/3 52/1/3 51/1/3
f 55/2/3 53/2/3 52/2/3
f 55/1/3 52/1/3 54/1/3
f 56/2/3 53/2/3 55/2/3
f 57/1/4 58/1/4 60/1/4
f 58/2/4 59/2/4 61/2/4
f 60/1/4 58/1/4 61/1/4
f 61/2/4 59/2/4 62/2/4
f 63/2/4 64/2/4 65/2/4
f 65/2/4 64/2/4 66/2/4
f 67/2/4 68/2/4 69/2/4
f 69/2/4 68/2/4 70/2/4
f 73/1/5 72/1/5 71/1/5
f 74/1/5 72/1/5 73/1/5
f 75/2/5 74/2/5 73/2/5
f 76/2/5 74/2/5 75/2/5
f 77/1/6 78/1/6 79/1/6
f 79/1/6 78/1/6 80/1/6
f 81/3/6 82/3/6 83/3/6
f 83/3/6 82/3/6 84/3/6
f 85/2/6 86/2/6 87/2/6
f 87/2/6 86/2/6 88/2/6
f 89/3/6 90/3/6 91/3/6
f 91/3/6 90/3/6 92/3/6
f 91/1/6 92/1/6 93/1/6
f 93/1/6 92/1/6 94/1/6
f 91/1/6 93/1/6 95/1/6
f 93/2/6 94/2/6 96/2/6
f 95/1/6 93/1/6 96/1/6
f 94/1/6 92/1/6 97/1/6
f 96/2/6 94/2/6 97/2/6
f 97/1/6 92/1/6 98/1/6
f 95/2/6 96/2/6 99/2/6
f 91/1/6 95/1/6 99/1/6
f 99/2/6 96/2/6 100/2/6
f 97/2/6 98/2/6 101/2/6
f 98/1/6 92/1/6 102/1/6
f 101/2/6 98/2/6 102/2/6
f 100/2/6 101/2/6 103/2/6
f 99/1/6 100/1/6 103/1/6
f 101/1/6 102/1/6 104/1/6
f 103/2/6 101/2/6 104/2/6
f 99/1/6 103/1/6 105/1/6
f 91/1/6 99/1/6 105/1/6
f 103/1/6 104/1/6 105/1/6
f 102/1/6 92/1/6 106/1/6
f 105/1/6 104/1/6 106/1/6
f 104/1/6 102/1/6 106/1/6
f 105/2/6 106/2/6 107/2/6
f 107/2/6 106/2/6 108/2/6
