# MagicaVoxel @ ephtracy

# material
mtllib Wall1.mtl
usemtl palette

# normals
vn -1 0 0
vn 1 0 0
vn 0 0 1
vn 0 0 -1
vn 0 -1 0
vn 0 1 0

# texcoords
vt 0.970703 0.5
vt 0.978516 0.5
vt 0.982422 0.5

# verts
v -16 0 13
v -16 0 -11
v -16 0 -13
v -16 31 13
v -16 31 11
v -16 32 13
v -16 32 11
v -16 32 -11
v -16 32 -13
v 6 29 6
v 6 29 -6
v 6 31 6
v 6 31 -6
v 6 32 6
v 6 32 -6
v -6 29 6
v -6 29 -6
v -6 31 6
v -6 31 -6
v -6 32 6
v -6 32 -6
v 16 0 13
v 16 0 -11
v 16 0 -13
v 16 31 13
v 16 31 11
v 16 32 13
v 16 32 11
v 16 32 -11
v 16 32 -13
v -16 0 13
v -16 31 13
v -16 32 13
v 16 0 13
v 16 31 13
v 16 32 13
v -6 29 -6
v -6 31 -6
v -6 32 -6
v 6 29 -6
v 6 31 -6
v 6 32 -6
v -6 29 6
v -6 31 6
v -6 32 6
v 6 29 6
v 6 31 6
v 6 32 6
v -16 0 -13
v -16 32 -13
v 16 0 -13
v 16 32 -13
v -16 0 13
v 16 0 13
v -16 0 -11
v 16 0 -11
v -16 0 -13
v 16 0 -13
v -6 29 6
v 6 29 6
v -6 29 -6
v 6 29 -6
v -16 32 13
v 16 32 13
v -16 32 11
v 16 32 11
v -6 32 7
v 6 32 7
v -7 32 6
v -6 32 6
v 6 32 6
v 7 32 6
v -7 32 -6
v -6 32 -6
v 6 32 -6
v 7 32 -6
v -6 32 -7
v 6 32 -7
v -16 32 -11
v 16 32 -11
v -16 32 -13
v 16 32 -13

# faces
f 4/1/1 2/1/1 1/1/1
f 5/1/1 2/1/1 4/1/1
f 6/3/1 5/3/1 4/3/1
f 7/1/1 2/1/1 5/1/1
f 7/3/1 5/3/1 6/3/1
f 8/2/1 3/2/1 2/2/1
f 8/1/1 2/1/1 7/1/1
f 9/2/1 3/2/1 8/2/1
f 12/1/1 11/1/1 10/1/1
f 13/1/1 11/1/1 12/1/1
f 14/2/1 13/2/1 12/2/1
f 15/2/1 13/2/1 14/2/1
f 16/1/2 17/1/2 18/1/2
f 18/1/2 17/1/2 19/1/2
f 18/2/2 19/2/2 20/2/2
f 20/2/2 19/2/2 21/2/2
f 22/1/2 23/1/2 25/1/2
f 25/1/2 23/1/2 26/1/2
f 25/3/2 26/3/2 27/3/2
f 26/1/2 23/1/2 28/1/2
f 27/3/2 26/3/2 28/3/2
f 23/2/2 24/2/2 29/2/2
f 28/1/2 23/1/2 29/1/2
f 29/2/2 24/2/2 30/2/2
f 34/1/3 32/1/3 31/1/3
f 35/3/3 33/3/3 32/3/3
f 35/1/3 32/1/3 34/1/3
f 36/3/3 33/3/3 35/3/3
f 40/1/3 38/1/3 37/1/3
f 41/2/3 39/2/3 38/2/3
f 41/1/3 38/1/3 40/1/3
f 42/2/3 39/2/3 41/2/3
f 43/1/4 44/1/4 46/1/4
f 44/2/4 45/2/4 47/2/4
f 46/1/4 44/1/4 47/1/4
f 47/2/4 45/2/4 48/2/4
f 49/2/4 50/2/4 51/2/4
f 51/2/4 50/2/4 52/2/4
f 55/1/5 54/1/5 53/1/5
f 56/1/5 54/1/5 55/1/5
f 57/2/5 56/2/5 55/2/5
f 58/2/5 56/2/5 57/2/5
f 59/1/6 60/1/6 61/1/6
f 61/1/6 60/1/6 62/1/6
f 63/3/6 64/3/6 65/3/6
f 65/3/6 64/3/6 66/3/6
f 65/1/6 66/1/6 67/1/6
f 67/1/6 66/1/6 68/1/6
f 65/1/6 67/1/6 69/1/6
f 67/2/6 68/2/6 70/2/6
f 69/1/6 67/1/6 70/1/6
f 68/1/6 66/1/6 71/1/6
f 70/2/6 68/2/6 71/2/6
f 71/1/6 66/1/6 72/1/6
f 69/2/6 70/2/6 73/2/6
f 65/1/6 69/1/6 73/1/6
f 73/2/6 70/2/6 74/2/6
f 71/2/6 72/2/6 75/2/6
f 72/1/6 66/1/6 76/1/6
f 75/2/6 72/2/6 76/2/6
f 74/2/6 75/2/6 77/2/6
f 73/1/6 74/1/6 77/1/6
f 75/1/6 76/1/6 78/1/6
f 77/2/6 75/2/6 78/2/6
f 73/1/6 77/1/6 79/1/6
f 65/1/6 73/1/6 79/1/6
f 77/1/6 78/1/6 79/1/6
f 76/1/6 66/1/6 80/1/6
f 79/1/6 78/1/6 80/1/6
f 78/1/6 76/1/6 80/1/6
f 79/2/6 80/2/6 81/2/6
f 81/2/6 80/2/6 82/2/6
