# MagicaVoxel @ ephtracy

# material
mtllib 3JointN.mtl
usemtl palette

# normals
vn -1 0 0
vn 1 0 0
vn 0 0 1
vn 0 0 -1
vn 0 -1 0
vn 0 1 0

# texcoords
vt 0.970703 0.5
vt 0.978516 0.5
vt 0.982422 0.5

# verts
v -16 0 13
v -16 0 -11
v -16 0 -13
v -16 30 13
v -16 30 12
v -16 31 13
v -16 31 12
v -16 31 11
v -16 31 -12
v -16 31 -13
v -16 32 12
v -16 32 11
v -16 32 -11
v -16 32 -12
v -14 0 14
v -14 0 13
v -14 30 14
v -14 30 13
v -14 31 14
v -14 31 13
v -14 31 12
v -14 32 13
v -14 32 12
v -13 0 16
v -13 0 14
v -13 30 14
v -13 31 16
v -13 31 14
v -13 31 13
v -13 32 14
v -13 32 13
v -12 31 16
v -12 31 14
v -12 32 16
v -12 32 14
v 6 29 6
v 6 29 -6
v 6 31 6
v 6 31 -6
v 6 32 6
v 6 32 -6
v -6 29 6
v -6 29 -6
v -6 31 6
v -6 31 -6
v -6 32 6
v -6 32 -6
v 12 31 16
v 12 31 14
v 12 32 16
v 12 32 14
v 13 0 16
v 13 0 14
v 13 30 16
v 13 30 14
v 13 31 16
v 13 31 14
v 13 31 13
v 13 32 14
v 13 32 13
v 14 0 14
v 14 0 13
v 14 30 14
v 14 30 13
v 14 31 14
v 14 31 13
v 14 31 12
v 14 32 13
v 14 32 12
v 16 0 13
v 16 0 -11
v 16 0 -13
v 16 30 13
v 16 30 12
v 16 31 13
v 16 31 12
v 16 31 11
v 16 31 -12
v 16 31 -13
v 16 32 12
v 16 32 11
v 16 32 -11
v 16 32 -12
v -13 0 16
v -13 31 16
v -12 31 16
v -12 32 16
v -11 0 16
v -11 32 16
v 11 31 16
v 11 32 16
v 12 30 16
v 12 31 16
v 12 32 16
v 13 0 16
v 13 30 16
v 13 31 16
v -14 0 14
v -14 30 14
v -14 31 14
v -13 0 14
v -13 30 14
v -13 31 14
v -13 32 14
v -12 31 14
v -12 32 14
v 12 31 14
v 12 32 14
v 13 0 14
v 13 30 14
v 13 31 14
v 13 32 14
v 14 0 14
v 14 30 14
v 14 31 14
v -16 0 13
v -16 30 13
v -16 31 13
v -14 0 13
v -14 30 13
v -14 31 13
v -14 32 13
v -13 31 13
v -13 32 13
v 13 31 13
v 13 32 13
v 14 0 13
v 14 30 13
v 14 31 13
v 14 32 13
v 16 0 13
v 16 30 13
v 16 31 13
v -16 31 12
v -16 32 12
v -14 31 12
v -14 32 12
v 14 31 12
v 14 32 12
v 16 31 12
v 16 32 12
v -6 29 -6
v -6 31 -6
v -6 32 -6
v 6 29 -6
v 6 31 -6
v 6 32 -6
v -6 29 6
v -6 31 6
v -6 32 6
v 6 29 6
v 6 31 6
v 6 32 6
v -16 31 -12
v -16 32 -12
v 16 31 -12
v 16 32 -12
v -16 0 -13
v -16 31 -13
v 16 0 -13
v 16 31 -13
v -13 0 16
v -11 0 16
v 13 0 16
v -14 0 14
v -13 0 14
v 13 0 14
v 14 0 14
v -16 0 13
v -14 0 13
v -13 0 13
v -11 0 13
v 14 0 13
v 16 0 13
v -16 0 -11
v 16 0 -11
v -16 0 -13
v 16 0 -13
v -6 29 6
v 6 29 6
v -6 29 -6
v 6 29 -6
v -13 31 16
v -12 31 16
v 12 31 16
v 13 31 16
v -14 31 14
v -13 31 14
v -12 31 14
v 12 31 14
v 13 31 14
v 14 31 14
v -16 31 13
v -14 31 13
v -13 31 13
v 13 31 13
v 14 31 13
v 16 31 13
v -16 31 12
v -14 31 12
v 14 31 12
v 16 31 12
v -16 31 -12
v 16 31 -12
v -16 31 -13
v 16 31 -13
v -12 32 16
v -11 32 16
v 11 32 16
v 12 32 16
v -13 32 14
v -12 32 14
v 12 32 14
v 13 32 14
v -14 32 13
v -13 32 13
v -12 32 13
v -11 32 13
v 11 32 13
v 12 32 13
v 13 32 13
v 14 32 13
v -16 32 12
v -14 32 12
v -13 32 12
v -12 32 12
v 12 32 12
v 13 32 12
v 14 32 12
v 16 32 12
v -16 32 11
v -13 32 11
v 13 32 11
v 16 32 11
v -6 32 7
v 6 32 7
v -7 32 6
v -6 32 6
v 6 32 6
v 7 32 6
v -7 32 -6
v -6 32 -6
v 6 32 -6
v 7 32 -6
v -6 32 -7
v 6 32 -7
v -16 32 -11
v 16 32 -11
v -16 32 -12
v 16 32 -12

# faces
f 4/1/1 2/1/1 1/1/1
f 5/1/1 2/1/1 4/1/1
f 6/3/1 5/3/1 4/3/1
f 7/1/1 2/1/1 5/1/1
f 7/3/1 5/3/1 6/3/1
f 8/1/1 2/1/1 7/1/1
f 9/2/1 3/2/1 2/2/1
f 10/2/1 3/2/1 9/2/1
f 11/3/1 8/3/1 7/3/1
f 12/1/1 2/1/1 8/1/1
f 12/3/1 8/3/1 11/3/1
f 13/2/1 9/2/1 2/2/1
f 13/1/1 2/1/1 12/1/1
f 14/2/1 9/2/1 13/2/1
f 17/1/1 16/1/1 15/1/1
f 18/1/1 16/1/1 17/1/1
f 19/3/1 18/3/1 17/3/1
f 20/3/1 18/3/1 19/3/1
f 22/3/1 21/3/1 20/3/1
f 23/3/1 21/3/1 22/3/1
f 26/2/1 25/2/1 24/2/1
f 27/2/1 26/2/1 24/2/1
f 28/2/1 26/2/1 27/2/1
f 30/2/1 29/2/1 28/2/1
f 31/2/1 29/2/1 30/2/1
f 34/2/1 33/2/1 32/2/1
f 35/2/1 33/2/1 34/2/1
f 38/1/1 37/1/1 36/1/1
f 39/1/1 37/1/1 38/1/1
f 40/2/1 39/2/1 38/2/1
f 41/2/1 39/2/1 40/2/1
f 42/1/2 43/1/2 44/1/2
f 44/1/2 43/1/2 45/1/2
f 44/2/2 45/2/2 46/2/2
f 46/2/2 45/2/2 47/2/2
f 48/3/2 49/3/2 50/3/2
f 50/3/2 49/3/2 51/3/2
f 52/1/2 53/1/2 54/1/2
f 54/1/2 53/1/2 55/1/2
f 54/3/2 55/3/2 56/3/2
f 56/3/2 55/3/2 57/3/2
f 57/3/2 58/3/2 59/3/2
f 59/3/2 58/3/2 60/3/2
f 61/1/2 62/1/2 63/1/2
f 63/1/2 62/1/2 64/1/2
f 63/3/2 64/3/2 65/3/2
f 65/3/2 64/3/2 66/3/2
f 66/3/2 67/3/2 68/3/2
f 68/3/2 67/3/2 69/3/2
f 70/1/2 71/1/2 73/1/2
f 73/1/2 71/1/2 74/1/2
f 73/3/2 74/3/2 75/3/2
f 74/1/2 71/1/2 76/1/2
f 75/3/2 74/3/2 76/3/2
f 76/1/2 71/1/2 77/1/2
f 71/2/2 72/2/2 78/2/2
f 78/2/2 72/2/2 79/2/2
f 76/3/2 77/3/2 80/3/2
f 77/1/2 71/1/2 81/1/2
f 80/3/2 77/3/2 81/3/2
f 71/2/2 78/2/2 82/2/2
f 81/1/2 71/1/2 82/1/2
f 82/2/2 78/2/2 83/2/2
f 86/2/3 85/2/3 84/2/3
f 88/2/3 86/2/3 84/2/3
f 88/2/3 87/2/3 86/2/3
f 89/2/3 87/2/3 88/2/3
f 90/1/3 89/1/3 88/1/3
f 91/1/3 89/1/3 90/1/3
f 92/1/3 90/1/3 88/1/3
f 93/3/3 91/3/3 90/3/3
f 93/1/3 90/1/3 92/1/3
f 94/3/3 91/3/3 93/3/3
f 95/1/3 92/1/3 88/1/3
f 96/3/3 93/3/3 92/3/3
f 96/1/3 92/1/3 95/1/3
f 97/3/3 93/3/3 96/3/3
f 101/1/3 99/1/3 98/1/3
f 102/3/3 100/3/3 99/3/3
f 102/1/3 99/1/3 101/1/3
f 103/3/3 100/3/3 102/3/3
f 105/2/3 104/2/3 103/2/3
f 106/2/3 104/2/3 105/2/3
f 111/3/3 108/3/3 107/3/3
f 112/3/3 108/3/3 111/3/3
f 113/1/3 110/1/3 109/1/3
f 114/3/3 111/3/3 110/3/3
f 114/1/3 110/1/3 113/1/3
f 115/3/3 111/3/3 114/3/3
f 119/1/3 117/1/3 116/1/3
f 120/3/3 118/3/3 117/3/3
f 120/1/3 117/1/3 119/1/3
f 121/3/3 118/3/3 120/3/3
f 123/3/3 122/3/3 121/3/3
f 124/3/3 122/3/3 123/3/3
f 129/3/3 126/3/3 125/3/3
f 130/3/3 126/3/3 129/3/3
f 131/1/3 128/1/3 127/1/3
f 132/3/3 129/3/3 128/3/3
f 132/1/3 128/1/3 131/1/3
f 133/3/3 129/3/3 132/3/3
f 136/3/3 135/3/3 134/3/3
f 137/3/3 135/3/3 136/3/3
f 140/3/3 139/3/3 138/3/3
f 141/3/3 139/3/3 140/3/3
f 145/1/3 143/1/3 142/1/3
f 146/2/3 144/2/3 143/2/3
f 146/1/3 143/1/3 145/1/3
f 147/2/3 144/2/3 146/2/3
f 148/1/4 149/1/4 151/1/4
f 149/2/4 150/2/4 152/2/4
f 151/1/4 149/1/4 152/1/4
f 152/2/4 150/2/4 153/2/4
f 154/2/4 155/2/4 156/2/4
f 156/2/4 155/2/4 157/2/4
f 158/2/4 159/2/4 160/2/4
f 160/2/4 159/2/4 161/2/4
f 166/2/5 163/2/5 162/2/5
f 167/1/5 164/1/5 163/1/5
f 170/1/5 166/1/5 165/1/5
f 171/2/5 163/2/5 166/2/5
f 171/1/5 166/1/5 170/1/5
f 172/1/5 168/1/5 167/1/5
f 172/2/5 163/2/5 171/2/5
f 172/1/5 167/1/5 163/1/5
f 173/1/5 168/1/5 172/1/5
f 175/1/5 171/1/5 170/1/5
f 175/1/5 174/1/5 173/1/5
f 175/1/5 173/1/5 172/1/5
f 175/1/5 172/1/5 171/1/5
f 175/1/5 170/1/5 169/1/5
f 176/1/5 174/1/5 175/1/5
f 177/2/5 176/2/5 175/2/5
f 178/2/5 176/2/5 177/2/5
f 179/1/6 180/1/6 181/1/6
f 181/1/6 180/1/6 182/1/6
f 183/2/6 184/2/6 188/2/6
f 188/2/6 184/2/6 189/2/6
f 185/3/6 186/3/6 190/3/6
f 190/3/6 186/3/6 191/3/6
f 187/3/6 188/3/6 194/3/6
f 194/3/6 188/3/6 195/3/6
f 191/3/6 192/3/6 196/3/6
f 196/3/6 192/3/6 197/3/6
f 193/3/6 194/3/6 199/3/6
f 199/3/6 194/3/6 200/3/6
f 197/3/6 198/3/6 201/3/6
f 201/3/6 198/3/6 202/3/6
f 203/2/6 204/2/6 205/2/6
f 205/2/6 204/2/6 206/2/6
f 207/2/6 208/2/6 212/2/6
f 209/3/6 210/3/6 213/3/6
f 211/2/6 212/2/6 216/2/6
f 212/2/6 208/2/6 217/2/6
f 216/2/6 212/2/6 217/2/6
f 208/1/6 209/1/6 218/1/6
f 217/2/6 208/2/6 218/2/6
f 213/3/6 214/3/6 219/3/6
f 218/1/6 209/1/6 219/1/6
f 209/3/6 213/3/6 219/3/6
f 219/3/6 214/3/6 220/3/6
f 220/3/6 214/3/6 221/3/6
f 216/3/6 217/3/6 224/3/6
f 215/3/6 216/3/6 224/3/6
f 224/3/6 217/3/6 225/3/6
f 217/1/6 218/1/6 226/1/6
f 225/3/6 217/3/6 226/3/6
f 218/1/6 219/1/6 226/1/6
f 219/1/6 220/1/6 226/1/6
f 221/3/6 222/3/6 227/3/6
f 226/1/6 220/1/6 227/1/6
f 220/3/6 221/3/6 227/3/6
f 227/3/6 222/3/6 228/3/6
f 228/3/6 222/3/6 229/3/6
f 224/3/6 225/3/6 231/3/6
f 223/3/6 224/3/6 231/3/6
f 225/1/6 226/1/6 232/1/6
f 231/3/6 225/3/6 232/3/6
f 226/1/6 227/1/6 232/1/6
f 227/1/6 228/1/6 232/1/6
f 229/3/6 230/3/6 233/3/6
f 232/1/6 228/1/6 233/1/6
f 228/3/6 229/3/6 233/3/6
f 233/3/6 230/3/6 234/3/6
f 231/1/6 232/1/6 235/1/6
f 232/1/6 233/1/6 235/1/6
f 233/1/6 234/1/6 235/1/6
f 235/1/6 234/1/6 236/1/6
f 231/1/6 235/1/6 237/1/6
f 235/2/6 236/2/6 238/2/6
f 237/1/6 235/1/6 238/1/6
f 236/1/6 234/1/6 239/1/6
f 238/2/6 236/2/6 239/2/6
f 239/1/6 234/1/6 240/1/6
f 237/2/6 238/2/6 241/2/6
f 231/1/6 237/1/6 241/1/6
f 241/2/6 238/2/6 242/2/6
f 239/2/6 240/2/6 243/2/6
f 240/1/6 234/1/6 244/1/6
f 243/2/6 240/2/6 244/2/6
f 242/2/6 243/2/6 245/2/6
f 241/1/6 242/1/6 245/1/6
f 243/1/6 244/1/6 246/1/6
f 245/2/6 243/2/6 246/2/6
f 241/1/6 245/1/6 247/1/6
f 231/1/6 241/1/6 247/1/6
f 245/1/6 246/1/6 247/1/6
f 244/1/6 234/1/6 248/1/6
f 247/1/6 246/1/6 248/1/6
f 246/1/6 244/1/6 248/1/6
f 247/2/6 248/2/6 249/2/6
f 249/2/6 248/2/6 250/2/6
